<?xml version="1.0" encoding="UTF-8"?>
<!DOCTYPE svg PUBLIC "-//W3C//DTD SVG 1.1//EN" "http://www.w3.org/Graphics/SVG/1.1/DTD/svg11.dtd">
<!-- Creator: CorelDRAW 2018 (64 Bit Versão de avaliação) -->
<svg xmlns="http://www.w3.org/2000/svg" xml:space="preserve" width="59.1581cm" height="20.9256cm" version="1.1" shape-rendering="geometricPrecision" text-rendering="geometricPrecision" image-rendering="optimizeQuality" fill-rule="evenodd" clip-rule="evenodd"
viewBox="0 0 23773.71 8409.31"
 xmlns:xlink="http://www.w3.org/1999/xlink">
 <defs>
   <clipPath id="id0">
    <path d="M572.62 0l22628.46 0c314.95,0 572.62,257.68 572.62,572.62l0 7264.07c0,314.95 -257.68,572.62 -572.62,572.62l-22628.46 0c-314.95,0 -572.62,-257.68 -572.62,-572.62l0 -7264.07c0,-314.95 257.68,-572.62 572.62,-572.62z"/>
   </clipPath>
 </defs>
 <g id="Camada_x0020_1">
  <metadata id="CorelCorpID_0Corel-Layer"/>
  <path fill="#93F048" d="M572.62 0l22628.46 0c314.95,0 572.62,257.68 572.62,572.62l0 7264.07c0,314.95 -257.68,572.62 -572.62,572.62l-22628.46 0c-314.95,0 -572.62,-257.68 -572.62,-572.62l0 -7264.07c0,-314.95 257.68,-572.62 572.62,-572.62z"/>
  <g clip-path="url(#id0)">
   <g id="_1754644494352">
    <path id="1" fill="#D9FFBA" fill-rule="nonzero" d="M23109.93 -2099.75l-7965.89 0.38 0 2335.82c124.95,-234.81 292.22,-368.98 552.15,-312.53 259.93,56.45 467.72,298.64 484.02,564.12 15.31,249.37 -119.82,481.35 -261.7,686.98 -141.88,205.64 -299.93,413.51 -341.18,659.93 -41.24,246.4 84.82,542.65 329.92,591.1 123.34,24.38 243.87,-16.78 365.43,-57.96 98.57,-33.38 197.81,-66.76 299.75,-65.19 271.45,4.19 479.85,256.44 559.53,515.96 87.98,286.55 54.57,628.7 -156.47,841.55 -70.07,70.68 -156.3,124.37 -222.67,198.53 -210.82,235.6 -159.46,622.99 34.14,872.94 193.6,249.95 492.55,392 785.16,511.7 292.62,119.71 598.14,230.61 833.64,441.54 223.45,200.12 365.98,475.7 467.97,757.79 36.09,-200.52 116.31,-368.38 243.95,-527.21 252.14,-313.72 638.68,-482.59 1012.16,-632.63 373.48,-150.04 763.32,-301.86 1038.61,-595.49 275.3,-293.62 396.01,-776.17 158.96,-1101.45 -151.14,-207.4 -428.53,-335.47 -481.05,-586.64 -51.93,-248.33 160.02,-485.76 398.51,-572.24 235.95,-85.57 497.69,-68.94 738.48,-139.77 240.81,-70.82 478.05,-289.84 425.2,-535.21 -43.48,-201.84 -257.78,-317.78 -354.6,-500.16 -124.57,-234.66 -21.07,-542.59 181.46,-714.57 202.51,-171.97 609.07,-201.48 874.55,-211.77l0 -2425.51z"/>
    <path fill="white" fill-rule="nonzero" d="M21094.49 3049.76c-29.44,-146.78 39.11,-301.31 148.68,-403.32 109.57,-102 254.68,-157.95 400.73,-190.79 60.28,-13.54 124.59,-23.32 182.76,-2.56 58.18,20.78 106.3,81.8 92.19,141.94 -6.73,28.68 -25.94,52.62 -45.7,74.46 -113.36,125.18 -274.56,240.64 -274.2,409.51 0.21,96.46 55.92,182.65 105.92,265.14 49.98,82.47 97.74,176.26 80.08,271.06 -14.3,76.71 -123.36,178.58 -204.9,122.31 -52.14,-35.98 -92.29,-174.18 -140.55,-230.01 -123.05,-142.33 -305.6,-261.4 -344.99,-457.74z"/>
    <path fill="white" fill-rule="nonzero" d="M22259.31 1013.67c-4.17,-161.87 81.73,-329.72 228.65,-397.79 63.06,-29.21 143.81,-37.08 197.4,7.17 47.45,39.19 59.5,106.27 63.95,167.64 12.51,172.28 -9.87,462.24 -164.52,576.01 -200.44,147.46 -321.74,-208.12 -325.47,-353.03z"/>
    <path fill="white" fill-rule="nonzero" d="M22239.54 2348.33c-28.78,18.44 -62,39.27 -67.14,73.07 -5.26,34.51 24.25,67.01 57.97,76.05 33.71,9.03 69.59,0.03 102.26,-12.29 124.95,-47.11 228.37,-142.72 298.25,-256.52 69.89,-113.8 107.93,-245.01 125.22,-377.43 5.49,-42.09 8.89,-85.52 -2.26,-126.46 -18,-66.08 -105.8,-137.23 -163.91,-72.23 -38.6,43.18 -18.26,174.36 -30.18,230.02 -40.32,188.47 -157.68,361.64 -320.2,465.79z"/>
    <path fill="white" fill-rule="nonzero" d="M15868.45 226.32c129.68,86.24 173.68,264.01 142.01,416.51 -31.66,152.49 -124.68,284.49 -222.51,405.69 -27.43,33.97 -61.81,70.55 -105.45,69.19 -26.95,-0.84 -51.48,-16.81 -69.59,-36.79 -68.51,-75.59 -54.04,-192.79 -30.35,-292.01 23.69,-99.24 50.84,-210.22 -1.23,-297.95 -37.31,-62.85 -114.05,-113.76 -103.74,-186.12 23.45,-164.66 294.41,-142.67 390.86,-78.5z"/>
    <path fill="white" fill-rule="nonzero" d="M16715.75 2544.07c183.77,82.65 303.48,289.41 283.65,489.94 -26.5,268.19 -260.93,459.75 -405.9,686.94 -26.25,41.1 -52.13,86.2 -95.77,107.97 -87.07,43.43 -194.93,-38.28 -214.17,-133.65 -19.24,-95.4 22.03,-191.72 65.81,-278.61 43.78,-86.89 92.39,-177.31 88.86,-274.55 -3.58,-98.61 -66.3,-192.77 -155.92,-234.07 -139.17,-64.14 -320.2,-153.99 -117.03,-282.32 164.59,-103.97 363.65,-165.66 550.46,-81.64z"/>
    <path fill="white" fill-rule="nonzero" d="M16202.74 4431.22c-31.51,196.75 76.21,391.77 215.7,534.07 52.2,53.25 109.48,101.88 172.92,141.08 61.72,38.15 148.63,64.56 201.35,14.69 36.48,-34.5 39.09,-93.86 19.78,-140.2 -19.32,-46.35 -56.15,-82.76 -92.01,-117.92 -109.49,-107.31 -225.23,-229.23 -236.49,-382.12 -5.73,-77.58 10.44,-227.68 -97.91,-246.51 -101.95,-17.7 -170.74,118.25 -183.34,196.91z"/>
    <path fill="white" fill-rule="nonzero" d="M21684.32 3948.78c6.8,0.25 13.15,-1.17 19.03,-4.25 6.13,-1.99 11.43,-5.4 15.9,-10.22 4.81,-4.48 8.23,-9.78 10.22,-15.9 3.09,-5.89 4.52,-12.23 4.26,-19.03 -0.59,-4.38 -1.17,-8.75 -1.76,-13.14 -2.36,-8.36 -6.58,-15.62 -12.72,-21.79 -3.33,-2.58 -6.66,-5.15 -9.99,-7.73 -7.7,-4.46 -16.01,-6.72 -24.94,-6.74 -6.79,-0.26 -13.14,1.16 -19.02,4.26 -6.13,1.99 -11.43,5.4 -15.9,10.21 -4.83,4.48 -8.22,9.77 -10.22,15.9 -3.09,5.88 -4.51,12.23 -4.25,19.03 0.58,4.38 1.17,8.76 1.76,13.13 2.35,8.37 6.58,15.64 12.71,21.81 3.33,2.58 6.66,5.14 9.99,7.71 7.7,4.48 16.02,6.73 24.93,6.76z"/>
    <path fill="#3F2A44" fill-rule="nonzero" d="M22067.85 2459.48l-0.29 -0.44c1.54,11.81 3.08,23.63 4.63,35.45l0.46 -1.59 0.23 -0.79c1.12,-3.85 1.65,-7.83 1.62,-11.93 -0.53,-3.94 -1.07,-7.9 -1.59,-11.85 -1.47,-6.44 -6.58,-15.19 -11.46,-19.67 -3.01,-2.32 -6,-4.63 -8.99,-6.94 -1.74,-0.86 -3.54,-1.62 -5.37,-2.28 -5.31,-2.78 -11.04,-4.07 -17.18,-3.83 -3.95,0.53 -7.91,1.06 -11.85,1.6l-0.87 0.25 -1.58 0.46c11.81,1.55 23.63,3.09 35.44,4.64 -1.86,-1.26 -3.93,-2.17 -6.18,-2.72 -5.71,-3.01 -11.89,-4.38 -18.5,-4.12 -6.61,-0.26 -12.78,1.12 -18.5,4.12 -5.96,1.94 -11.11,5.25 -15.46,9.94 -2.51,3.24 -5.01,6.48 -7.51,9.72 -3.51,5.51 -5.41,11.46 -5.69,17.85 -1.43,6.39 -1.15,12.77 0.85,19.15 1.49,6.26 4.35,11.69 8.6,16.34 3.4,5.23 7.88,9.36 13.48,12.37 3.83,1.62 7.65,3.23 11.48,4.84 6.39,2.01 12.76,2.29 19.15,0.86 6.39,-0.3 12.35,-2.2 17.85,-5.7 3.24,-2.51 6.48,-5.01 9.73,-7.52 5.95,-5.98 10.07,-13.05 12.35,-21.19 0.58,-4.26 1.15,-8.51 1.72,-12.76 -0.02,-8.67 -2.21,-16.74 -6.56,-24.24z"/>
    <path fill="#3F2A44" fill-rule="nonzero" d="M15750.4 2652.36c24.23,0 44.82,-20.61 44.82,-44.83 0,-24.3 -20.51,-44.82 -44.82,-44.82 -24.22,0 -44.82,20.6 -44.82,44.82 0,24.31 20.52,44.83 44.82,44.83z"/>
    <path fill="white" fill-rule="nonzero" d="M16395.91 4092.38c6.68,0.26 12.9,-1.13 18.68,-4.16 6,-1.97 11.21,-5.31 15.6,-10.03 4.73,-4.4 8.07,-9.59 10.03,-15.6 3.04,-5.77 4.43,-12.01 4.18,-18.68 -0.57,-4.3 -1.15,-8.6 -1.73,-12.9 -2.3,-8.21 -6.46,-15.34 -12.47,-21.38 -3.27,-2.53 -6.54,-5.06 -9.81,-7.59 -7.56,-4.38 -15.72,-6.6 -24.47,-6.62 -6.68,-0.25 -12.9,1.15 -18.68,4.18 -6.01,1.97 -11.21,5.29 -15.6,10.03 -4.73,4.38 -8.07,9.59 -10.03,15.6 -3.03,5.77 -4.42,12.01 -4.18,18.68 0.58,4.3 1.16,8.59 1.74,12.89 2.3,8.21 6.46,15.34 12.47,21.39 3.27,2.52 6.54,5.05 9.81,7.58 7.56,4.38 15.72,6.58 24.47,6.61z"/>
    <path fill="white" fill-rule="nonzero" d="M15594.91 1232.71c-19.72,10.48 -28.99,31.14 -38.47,50.64 -10.43,21.47 -19.78,43.21 -28.51,65.42 -16.97,43.2 -31.83,86.93 -45.51,131.28 -26.71,86.59 -50.55,174.27 -65.08,263.81 -27.57,169.87 -23.87,343.97 44.79,503.97 32.77,76.38 82.24,154.52 148.49,206.17 18.94,14.77 44.49,18.48 62.96,0 16.71,-16.7 17.5,-46.35 0,-62.96 -53.02,-50.31 -92.47,-98.22 -124.77,-164.33 -28.17,-57.68 -48.96,-131.96 -57.15,-194.63 -22.29,-170.5 14.11,-343.21 58.17,-507.28 12.53,-46.69 26.49,-92.97 39.75,-139.44 6.92,-24.25 14.13,-48.3 20.22,-72.77 5.68,-22.81 14.84,-48.35 6.61,-71.14 -3.28,-9.07 -12.67,-13.44 -21.5,-8.74z"/>
    <path fill="white" fill-rule="nonzero" d="M20883.61 5022.76c33.02,-15 68.13,-23.4 100.92,-38.56 36.75,-16.98 72.38,-35.96 108.19,-54.83 74.61,-39.3 147.52,-84.25 217.08,-131.88 62.1,-42.53 123.53,-90.61 170.98,-149.53 60.01,-74.52 112.56,-155.02 153.14,-241.8 22.88,-48.93 42.63,-99.47 57.7,-151.37 7.45,-25.63 13.29,-51.37 17.49,-77.75 4.59,-28.92 8.91,-59.82 -8.06,-85.54 -8.86,-13.45 -26.31,-15.99 -38.31,-4.94 -17.7,16.31 -24,38.22 -29.7,60.99 -5.79,23.07 -11.3,46.2 -17.55,69.17 -11.53,42.43 -25.89,84.34 -43.59,124.61 -36.31,82.55 -83.34,160.8 -138.51,232.13 -44.29,57.28 -99.15,102.96 -154.03,143.4 -66.89,49.26 -137.66,92.66 -208.4,136.07 -38.03,23.35 -76.09,47.59 -112.02,74.06 -31.8,23.43 -58.83,52.62 -88.27,79.02 -9.65,8.66 2.63,21.44 12.94,16.75z"/>
    <polygon fill="#FEFEFE" fill-rule="nonzero" points="18089.97,1876.86 18089.96,1876.95 18089.96,1876.77 "/>
    <polygon fill="#FEFEFE" fill-rule="nonzero" points="17962.71,1876.86 17962.71,1876.77 17962.71,1876.94 "/>
    <path fill="#FEFEFE" fill-rule="nonzero" d="M18089.96 1876.77c-34.23,-1.8 -61.76,-35.77 -63.53,-78.24 -1.77,42.55 -29.4,76.56 -63.72,78.24l0 0.17c34.32,1.68 61.95,35.7 63.72,78.23 1.77,-42.45 29.3,-76.42 63.53,-78.22l0.01 -0.09 -0.01 -0.09z"/>
    <polygon fill="#FEFEFE" fill-rule="nonzero" points="21588.73,2690.3 21588.73,2690.39 21588.73,2690.22 "/>
    <polygon fill="#FEFEFE" fill-rule="nonzero" points="21461.46,2690.3 21461.46,2690.22 21461.46,2690.39 "/>
    <path fill="#FEFEFE" fill-rule="nonzero" d="M21588.73 2690.22c-34.23,-1.8 -61.77,-35.77 -63.54,-78.23 -1.77,42.53 -29.4,76.55 -63.72,78.23l0 0.17c34.32,1.68 61.96,35.69 63.72,78.24 1.77,-42.47 29.31,-76.44 63.54,-78.24l0 -0.17z"/>
    <polygon fill="#FEFEFE" fill-rule="nonzero" points="22595.94,768.84 22595.94,768.94 22595.94,768.76 "/>
    <polygon fill="#FEFEFE" fill-rule="nonzero" points="22468.68,768.84 22468.68,768.77 22468.68,768.94 "/>
    <path fill="#FEFEFE" fill-rule="nonzero" d="M22595.94 768.76c-34.23,-1.8 -61.76,-35.76 -63.53,-78.22 -1.78,42.53 -29.42,76.54 -63.72,78.23l0 0.17c34.31,1.68 61.94,35.69 63.72,78.23 1.77,-42.47 29.3,-76.44 63.53,-78.23l0 -0.18z"/>
    <polygon fill="#FEFEFE" fill-rule="nonzero" points="21588.73,3306.64 21588.73,3306.74 21588.73,3306.56 "/>
    <polygon fill="#FEFEFE" fill-rule="nonzero" points="21461.46,3306.64 21461.46,3306.57 21461.46,3306.74 "/>
    <path fill="#FEFEFE" fill-rule="nonzero" d="M21588.73 3306.56c-34.23,-1.8 -61.77,-35.76 -63.54,-78.22 -1.77,42.53 -29.4,76.55 -63.72,78.23l0 0.17c34.32,1.68 61.96,35.69 63.72,78.23 1.77,-42.47 29.31,-76.44 63.54,-78.23l0 -0.18z"/>
    <polygon fill="#FEFEFE" fill-rule="nonzero" points="22674.9,-1502.86 22674.88,-1502.76 22674.88,-1502.95 "/>
    <polygon fill="#FEFEFE" fill-rule="nonzero" points="22547.63,-1502.86 22547.63,-1502.93 22547.63,-1502.78 "/>
    <path fill="#FEFEFE" fill-rule="nonzero" d="M22674.88 -1502.95c-34.23,-1.79 -61.76,-35.76 -63.53,-78.23 -1.77,42.54 -29.4,76.55 -63.72,78.24l0 0.15c34.32,1.68 61.95,35.7 63.72,78.23 1.77,-42.45 29.3,-76.42 63.53,-78.22l0.02 -0.09 -0.02 -0.09z"/>
    <polygon fill="#FEFEFE" fill-rule="nonzero" points="21281.61,-1206.7 21281.61,-1206.61 21281.61,-1206.8 "/>
    <polygon fill="#FEFEFE" fill-rule="nonzero" points="21154.36,-1206.7 21154.36,-1206.78 21154.36,-1206.61 "/>
    <path fill="#FEFEFE" fill-rule="nonzero" d="M21281.61 -1206.8c-34.23,-1.78 -61.76,-35.75 -63.53,-78.22 -1.78,42.55 -29.42,76.56 -63.72,78.23l0 0.17c34.31,1.68 61.94,35.7 63.72,78.23 1.77,-42.47 29.3,-76.44 63.53,-78.23l0 -0.18z"/>
    <polygon fill="#FEFEFE" fill-rule="nonzero" points="19578.1,-1557.03 19578.1,-1556.95 19578.1,-1557.12 "/>
    <polygon fill="#FEFEFE" fill-rule="nonzero" points="19450.83,-1557.03 19450.83,-1557.12 19450.83,-1556.95 "/>
    <path fill="#FEFEFE" fill-rule="nonzero" d="M19578.1 -1557.12c-34.23,-1.8 -61.77,-35.77 -63.54,-78.23 -1.76,42.54 -29.4,76.55 -63.72,78.23l0 0.17c34.32,1.68 61.96,35.7 63.72,78.23 1.77,-42.47 29.32,-76.44 63.54,-78.23l0 -0.17z"/>
    <polygon fill="#FEFEFE" fill-rule="nonzero" points="22259.13,-390.34 22259.13,-390.25 22259.13,-390.43 "/>
    <polygon fill="#FEFEFE" fill-rule="nonzero" points="22131.87,-390.34 22131.87,-390.42 22131.87,-390.27 "/>
    <path fill="#FEFEFE" fill-rule="nonzero" d="M22259.13 -390.43c-34.23,-1.8 -61.78,-35.77 -63.54,-78.23 -1.77,42.55 -29.4,76.55 -63.72,78.24l0 0.16c34.32,1.69 61.95,35.7 63.72,78.23 1.76,-42.46 29.31,-76.43 63.54,-78.22l0 -0.18z"/>
    <polygon fill="#FEFEFE" fill-rule="nonzero" points="21799.8,95.69 21799.78,95.78 21799.78,95.6 "/>
    <polygon fill="#FEFEFE" fill-rule="nonzero" points="21672.53,95.69 21672.53,95.6 21672.53,95.77 "/>
    <path fill="#FEFEFE" fill-rule="nonzero" d="M21799.78 95.6c-34.23,-1.8 -61.76,-35.77 -63.53,-78.24 -1.77,42.55 -29.4,76.56 -63.72,78.24l0 0.17c34.32,1.68 61.95,35.7 63.72,78.23 1.77,-42.45 29.3,-76.42 63.53,-78.22l0.02 -0.09 -0.02 -0.09z"/>
    <polygon fill="#FEFEFE" fill-rule="nonzero" points="21824.45,1705.16 21824.45,1705.25 21824.45,1705.07 "/>
    <polygon fill="#FEFEFE" fill-rule="nonzero" points="21697.18,1705.16 21697.18,1705.08 21697.18,1705.24 "/>
    <path fill="#FEFEFE" fill-rule="nonzero" d="M21824.45 1705.07c-34.23,-1.8 -61.78,-35.77 -63.54,-78.22 -1.77,42.53 -29.4,76.54 -63.72,78.23l0 0.16c34.32,1.69 61.95,35.7 63.72,78.23 1.77,-42.45 29.31,-76.42 63.54,-78.22l0 -0.18z"/>
    <polygon fill="#FEFEFE" fill-rule="nonzero" points="20519.8,1569.14 20519.8,1569.22 20519.8,1569.05 "/>
    <polygon fill="#FEFEFE" fill-rule="nonzero" points="20392.54,1569.14 20392.54,1569.05 20392.54,1569.22 "/>
    <path fill="#FEFEFE" fill-rule="nonzero" d="M20519.8 1569.05c-34.23,-1.8 -61.78,-35.77 -63.54,-78.23 -1.77,42.54 -29.4,76.55 -63.72,78.23l0 0.17c34.32,1.68 61.95,35.7 63.72,78.23 1.77,-42.46 29.31,-76.43 63.54,-78.23l0 -0.17z"/>
    <polygon fill="#FEFEFE" fill-rule="nonzero" points="20396.39,2627.89 20396.39,2627.98 20396.39,2627.8 "/>
    <polygon fill="#FEFEFE" fill-rule="nonzero" points="20269.12,2627.89 20269.12,2627.81 20269.12,2627.98 "/>
    <path fill="#FEFEFE" fill-rule="nonzero" d="M20396.39 2627.8c-34.23,-1.78 -61.77,-35.76 -63.54,-78.22 -1.77,42.53 -29.4,76.55 -63.72,78.23l0 0.17c34.32,1.68 61.96,35.69 63.72,78.23 1.77,-42.47 29.31,-76.44 63.54,-78.23l0 -0.18z"/>
    <polygon fill="#FEFEFE" fill-rule="nonzero" points="20797.55,4333.5 20797.55,4333.59 20797.55,4333.41 "/>
    <polygon fill="#FEFEFE" fill-rule="nonzero" points="20670.29,4333.5 20670.3,4333.42 20670.3,4333.58 "/>
    <path fill="#FEFEFE" fill-rule="nonzero" d="M20797.55 4333.41c-34.23,-1.8 -61.77,-35.77 -63.54,-78.22 -1.77,42.53 -29.4,76.54 -63.71,78.23l-0.01 0.08 0.01 0.08c34.31,1.69 61.94,35.7 63.71,78.23 1.77,-42.45 29.31,-76.42 63.54,-78.22l0 -0.18z"/>
    <polygon fill="#FEFEFE" fill-rule="nonzero" points="21082.62,389.45 21082.61,389.54 21082.61,389.36 "/>
    <polygon fill="#FEFEFE" fill-rule="nonzero" points="20955.36,389.45 20955.36,389.36 20955.36,389.53 "/>
    <path fill="#FEFEFE" fill-rule="nonzero" d="M21082.61 389.36c-34.24,-1.8 -61.76,-35.77 -63.53,-78.23 -1.77,42.54 -29.4,76.55 -63.72,78.23l0 0.17c34.32,1.69 61.96,35.7 63.72,78.23 1.77,-42.45 29.3,-76.42 63.53,-78.22l0.01 -0.09 -0.01 -0.09z"/>
    <polygon fill="#FEFEFE" fill-rule="nonzero" points="17399.19,519.44 17399.17,519.53 17399.17,519.37 "/>
    <polygon fill="#FEFEFE" fill-rule="nonzero" points="17271.92,519.44 17271.92,519.37 17271.92,519.53 "/>
    <path fill="#FEFEFE" fill-rule="nonzero" d="M17399.17 519.37c-34.23,-1.8 -61.76,-35.77 -63.53,-78.23 -1.77,42.53 -29.4,76.56 -63.72,78.23l0 0.17c34.32,1.68 61.96,35.69 63.72,78.23 1.77,-42.47 29.3,-76.44 63.53,-78.23l0.02 -0.09 -0.02 -0.08z"/>
    <polygon fill="#FEFEFE" fill-rule="nonzero" points="15901.99,467.75 15901.99,467.85 15901.99,467.66 "/>
    <polygon fill="#FEFEFE" fill-rule="nonzero" points="15774.73,467.75 15774.73,467.68 15774.73,467.85 "/>
    <path fill="#FEFEFE" fill-rule="nonzero" d="M15901.99 467.66c-34.24,-1.79 -61.77,-35.77 -63.54,-78.22 -1.77,42.53 -29.4,76.55 -63.73,78.23l0 0.17c34.32,1.68 61.96,35.69 63.73,78.23 1.77,-42.46 29.3,-76.43 63.54,-78.23l0 -0.18z"/>
    <polygon fill="#FEFEFE" fill-rule="nonzero" points="19861.1,4935.24 19861.1,4935.32 19861.1,4935.15 "/>
    <polygon fill="#FEFEFE" fill-rule="nonzero" points="19733.84,4935.24 19733.84,4935.15 19733.84,4935.32 "/>
    <path fill="#FEFEFE" fill-rule="nonzero" d="M19861.1 4935.15c-34.23,-1.8 -61.77,-35.76 -63.54,-78.23 -1.77,42.53 -29.4,76.55 -63.72,78.23l0 0.17c34.32,1.68 61.95,35.7 63.72,78.23 1.77,-42.47 29.31,-76.44 63.54,-78.23l0 -0.17z"/>
    <polygon fill="#FEFEFE" fill-rule="nonzero" points="16439.69,-1048.08 16439.69,-1047.99 16439.69,-1048.17 "/>
    <polygon fill="#FEFEFE" fill-rule="nonzero" points="16312.43,-1048.08 16312.43,-1048.17 16312.43,-1047.99 "/>
    <path fill="#FEFEFE" fill-rule="nonzero" d="M16439.69 -1048.17c-34.24,-1.8 -61.77,-35.77 -63.54,-78.22 -1.77,42.53 -29.4,76.54 -63.72,78.23l0 0.17c34.32,1.68 61.95,35.69 63.72,78.22 1.77,-42.45 29.3,-76.42 63.54,-78.22l0 -0.18z"/>
    <polygon fill="#FEFEFE" fill-rule="nonzero" points="17580.84,-1424.55 17580.84,-1424.45 17580.84,-1424.64 "/>
    <polygon fill="#FEFEFE" fill-rule="nonzero" points="17453.57,-1424.55 17453.58,-1424.62 17453.58,-1424.45 "/>
    <path fill="#FEFEFE" fill-rule="nonzero" d="M17580.84 -1424.64c-34.23,-1.8 -61.77,-35.75 -63.54,-78.22 -1.77,42.53 -29.4,76.54 -63.71,78.23l-0.02 0.08 0.02 0.09c34.3,1.68 61.94,35.69 63.71,78.23 1.77,-42.47 29.31,-76.44 63.54,-78.23l0 -0.18z"/>
    <polygon fill="#FEFEFE" fill-rule="nonzero" points="18540,5051.32 18540,5051.42 18540,5051.24 "/>
    <polygon fill="#FEFEFE" fill-rule="nonzero" points="18412.74,5051.32 18412.74,5051.24 18412.74,5051.42 "/>
    <path fill="#FEFEFE" fill-rule="nonzero" d="M18540 5051.24c-34.23,-1.79 -61.76,-35.76 -63.53,-78.23 -1.78,42.53 -29.42,76.56 -63.73,78.23l0 0.17c34.31,1.68 61.94,35.68 63.73,78.23 1.76,-42.47 29.3,-76.44 63.53,-78.23l0 -0.17z"/>
    <polygon fill="#FEFEFE" fill-rule="nonzero" points="17517.23,3795.54 17517.23,3795.62 17517.23,3795.45 "/>
    <polygon fill="#FEFEFE" fill-rule="nonzero" points="17389.97,3795.54 17389.97,3795.45 17389.97,3795.62 "/>
    <path fill="#FEFEFE" fill-rule="nonzero" d="M17517.23 3795.45c-34.23,-1.79 -61.77,-35.76 -63.54,-78.23 -1.77,42.55 -29.4,76.55 -63.72,78.23l0 0.17c34.31,1.68 61.94,35.7 63.72,78.23 1.77,-42.47 29.31,-76.44 63.54,-78.23l0 -0.17z"/>
    <polygon fill="#FEFEFE" fill-rule="nonzero" points="16654.54,1647.45 16654.54,1647.54 16654.54,1647.36 "/>
    <polygon fill="#FEFEFE" fill-rule="nonzero" points="16527.27,1647.45 16527.27,1647.37 16527.27,1647.53 "/>
    <path fill="#FEFEFE" fill-rule="nonzero" d="M16654.54 1647.36c-34.23,-1.8 -61.77,-35.77 -63.54,-78.22 -1.77,42.53 -29.4,76.54 -63.72,78.23l0 0.16c34.32,1.69 61.96,35.7 63.72,78.24 1.77,-42.47 29.31,-76.44 63.54,-78.23l0 -0.18z"/>
    <polygon fill="#FEFEFE" fill-rule="nonzero" points="16718.14,3003.5 16718.14,3003.59 16718.14,3003.41 "/>
    <polygon fill="#FEFEFE" fill-rule="nonzero" points="16590.88,3003.5 16590.88,3003.42 16590.88,3003.59 "/>
    <path fill="#FEFEFE" fill-rule="nonzero" d="M16718.14 3003.41c-34.23,-1.8 -61.77,-35.77 -63.54,-78.22 -1.77,42.53 -29.4,76.54 -63.72,78.23l0 0.17c34.32,1.68 61.96,35.69 63.72,78.23 1.77,-42.47 29.31,-76.44 63.54,-78.23l0 -0.18z"/>
    <polygon fill="#FEFEFE" fill-rule="nonzero" points="17648.04,4756.12 17648.03,4756.21 17648.03,4756.03 "/>
    <polygon fill="#FEFEFE" fill-rule="nonzero" points="17520.78,4756.12 17520.78,4756.04 17520.78,4756.2 "/>
    <path fill="#FEFEFE" fill-rule="nonzero" d="M17648.03 4756.03c-34.23,-1.8 -61.76,-35.77 -63.53,-78.22 -1.77,42.53 -29.4,76.54 -63.72,78.23l0 0.16c34.32,1.69 61.96,35.7 63.72,78.23 1.77,-42.45 29.3,-76.42 63.53,-78.22l0.01 -0.09 -0.01 -0.09z"/>
    <path fill="#FEFEFE" fill-rule="nonzero" d="M15765.04 771.84c0,8.08 -6.55,14.62 -14.64,14.62 -8.08,0 -14.63,-6.54 -14.63,-14.62 0,-8.09 6.55,-14.64 14.63,-14.64 8.09,0 14.64,6.55 14.64,14.64z"/>
    <path fill="#FEFEFE" fill-rule="nonzero" d="M17639.33 1245.34c0,8.08 -6.54,14.64 -14.62,14.64 -8.09,0 -14.63,-6.56 -14.63,-14.64 0,-8.08 6.54,-14.63 14.63,-14.63 8.08,0 14.62,6.55 14.62,14.63z"/>
    <path fill="#FEFEFE" fill-rule="nonzero" d="M18195.38 4310.07c0,8.09 -6.56,14.63 -14.64,14.63 -8.08,0 -14.64,-6.54 -14.64,-14.63 0,-8.08 6.56,-14.64 14.64,-14.64 8.08,0 14.64,6.56 14.64,14.64z"/>
    <path fill="#FEFEFE" fill-rule="nonzero" d="M18694.75 2000.19c0,8.08 -6.55,14.64 -14.64,14.64 -8.09,0 -14.64,-6.55 -14.64,-14.64 0,-8.08 6.54,-14.64 14.64,-14.64 8.08,0 14.64,6.55 14.64,14.64z"/>
    <path fill="#FEFEFE" fill-rule="nonzero" d="M19715.82 1689.11c0,8.08 -6.55,14.62 -14.64,14.62 -8.08,0 -14.62,-6.54 -14.62,-14.62 0,-8.09 6.54,-14.64 14.62,-14.64 8.09,0 14.64,6.55 14.64,14.64z"/>
    <path fill="#FEFEFE" fill-rule="nonzero" d="M21105.34 3174.17c0,8.08 -6.55,14.64 -14.64,14.64 -8.08,0 -14.64,-6.55 -14.64,-14.64 0,-8.08 6.55,-14.64 14.64,-14.64 8.08,0 14.64,6.55 14.64,14.64z"/>
    <path fill="#FEFEFE" fill-rule="nonzero" d="M20347.39 1969.8c0,8.08 -6.56,14.64 -14.64,14.64 -8.08,0 -14.64,-6.56 -14.64,-14.64 0,-8.08 6.56,-14.64 14.64,-14.64 8.08,0 14.64,6.56 14.64,14.64z"/>
    <path fill="#FEFEFE" fill-rule="nonzero" d="M21218 1883.89c0,8.09 -6.54,14.64 -14.64,14.64 -8.08,0 -14.62,-6.55 -14.62,-14.64 0,-8.08 6.55,-14.62 14.62,-14.62 8.09,0 14.64,6.54 14.64,14.62z"/>
    <path fill="#FEFEFE" fill-rule="nonzero" d="M22102.08 2014.83c0,8.08 -6.54,14.64 -14.62,14.64 -8.09,0 -14.64,-6.56 -14.64,-14.64 0,-8.08 6.54,-14.64 14.64,-14.64 8.08,0 14.62,6.56 14.62,14.64z"/>
    <path fill="#FEFEFE" fill-rule="nonzero" d="M21385.04 3017.98c0,8.08 -6.55,14.64 -14.63,14.64 -8.09,0 -14.63,-6.56 -14.63,-14.64 0,-8.08 6.54,-14.64 14.63,-14.64 8.08,0 14.63,6.56 14.63,14.64z"/>
    <path fill="#FEFEFE" fill-rule="nonzero" d="M21516.25 874.62c0,8.09 -6.56,14.64 -14.64,14.64 -8.07,0 -14.63,-6.54 -14.63,-14.64 0,-8.08 6.56,-14.64 14.63,-14.64 8.08,0 14.64,6.55 14.64,14.64z"/>
    <path fill="#FEFEFE" fill-rule="nonzero" d="M20969.33 1081.13c0,8.09 -6.56,14.63 -14.64,14.63 -8.08,0 -14.64,-6.54 -14.64,-14.63 0,-8.08 6.56,-14.63 14.64,-14.63 8.08,0 14.64,6.55 14.64,14.63z"/>
    <path fill="#FEFEFE" fill-rule="nonzero" d="M22546.97 1201.43c0,8.08 -6.56,14.64 -14.64,14.64 -8.08,0 -14.64,-6.55 -14.64,-14.64 0,-8.08 6.56,-14.64 14.64,-14.64 8.08,0 14.64,6.55 14.64,14.64z"/>
    <path fill="#FEFEFE" fill-rule="nonzero" d="M22689.52 1947.16c0,8.08 -6.54,14.64 -14.64,14.64 -8.08,0 -14.62,-6.56 -14.62,-14.64 0,-8.08 6.54,-14.64 14.62,-14.64 8.09,0 14.64,6.56 14.64,14.64z"/>
    <path fill="#FEFEFE" fill-rule="nonzero" d="M22520.35 2249.82c0,8.09 -6.54,14.64 -14.64,14.64 -8.08,0 -14.64,-6.54 -14.64,-14.64 0,-8.08 6.56,-14.62 14.64,-14.62 8.09,0 14.64,6.55 14.64,14.62z"/>
    <path fill="#FEFEFE" fill-rule="nonzero" d="M21058.29 3821.97c0,8.08 -6.55,14.62 -14.63,14.62 -8.08,0 -14.64,-6.54 -14.64,-14.62 0,-8.09 6.56,-14.64 14.64,-14.64 8.08,0 14.63,6.55 14.63,14.64z"/>
    <path fill="#FEFEFE" fill-rule="nonzero" d="M21591.81 -478.61c0,8.08 -6.55,14.64 -14.64,14.64 -8.08,0 -14.64,-6.56 -14.64,-14.64 0,-8.09 6.55,-14.63 14.64,-14.63 8.08,0 14.64,6.54 14.64,14.63z"/>
    <path fill="#FEFEFE" fill-rule="nonzero" d="M20332.75 3717.22c0,8.08 -6.55,14.64 -14.64,14.64 -8.08,0 -14.64,-6.56 -14.64,-14.64 0,-8.08 6.55,-14.64 14.64,-14.64 8.08,0 14.64,6.56 14.64,14.64z"/>
    <path fill="#FEFEFE" fill-rule="nonzero" d="M22243.34 -1367.43c0,8.08 -6.56,14.64 -14.64,14.64 -8.08,0 -14.64,-6.56 -14.64,-14.64 0,-8.08 6.56,-14.64 14.64,-14.64 8.08,0 14.64,6.56 14.64,14.64z"/>
    <path fill="#FEFEFE" fill-rule="nonzero" d="M22576.24 -2.83c0,8.08 -6.56,14.64 -14.64,14.64 -8.08,0 -14.64,-6.55 -14.64,-14.64 0,-8.08 6.56,-14.63 14.64,-14.63 8.08,0 14.64,6.55 14.64,14.63z"/>
    <path fill="#FEFEFE" fill-rule="nonzero" d="M21935.96 441.13c0,8.08 -6.56,14.64 -14.63,14.64 -8.08,0 -14.64,-6.55 -14.64,-14.64 0,-8.08 6.56,-14.64 14.64,-14.64 8.07,0 14.63,6.55 14.63,14.64z"/>
    <path fill="#FEFEFE" fill-rule="nonzero" d="M17805.29 3042.16c0,8.08 -6.56,14.62 -14.64,14.62 -8.07,0 -14.63,-6.54 -14.63,-14.62 0,-8.09 6.56,-14.64 14.63,-14.64 8.08,0 14.64,6.54 14.64,14.64z"/>
    <path fill="#FEFEFE" fill-rule="nonzero" d="M16454.33 4770.76c0,8.08 -6.56,14.64 -14.64,14.64 -8.08,0 -14.64,-6.56 -14.64,-14.64 0,-8.08 6.56,-14.63 14.64,-14.63 8.08,0 14.64,6.55 14.64,14.63z"/>
    <path fill="#FEFEFE" fill-rule="nonzero" d="M17949.49 4999.63c0,8.09 -6.56,14.64 -14.64,14.64 -8.08,0 -14.64,-6.55 -14.64,-14.64 0,-8.08 6.56,-14.64 14.64,-14.64 8.08,0 14.64,6.56 14.64,14.64z"/>
    <path fill="#FEFEFE" fill-rule="nonzero" d="M18853.94 5657.71c0,8.08 -6.54,14.64 -14.64,14.64 -8.08,0 -14.62,-6.56 -14.62,-14.64 0,-8.08 6.54,-14.64 14.62,-14.64 8.09,0 14.64,6.56 14.64,14.64z"/>
    <path fill="#FEFEFE" fill-rule="nonzero" d="M18491 4756.03c0,8.08 -6.54,14.64 -14.62,14.64 -8.09,0 -14.64,-6.55 -14.64,-14.64 0,-8.08 6.55,-14.64 14.64,-14.64 8.08,0 14.62,6.55 14.62,14.64z"/>
    <path fill="#FEFEFE" fill-rule="nonzero" d="M20135.35 4776.13c0,8.08 -6.56,14.64 -14.64,14.64 -8.08,0 -14.64,-6.56 -14.64,-14.64 0,-8.07 6.56,-14.63 14.64,-14.63 8.08,0 14.64,6.56 14.64,14.63z"/>
    <path fill="#FEFEFE" fill-rule="nonzero" d="M20684.26 3489.83c0,8.08 -6.54,14.64 -14.62,14.64 -8.09,0 -14.64,-6.56 -14.64,-14.64 0,-8.09 6.54,-14.63 14.64,-14.63 8.08,0 14.62,6.54 14.62,14.63z"/>
    <path fill="#FEFEFE" fill-rule="nonzero" d="M19261.85 5148.43c0,8.08 -6.56,14.62 -14.64,14.62 -8.08,0 -14.64,-6.54 -14.64,-14.62 0,-8.09 6.56,-14.64 14.64,-14.64 8.08,0 14.64,6.55 14.64,14.64z"/>
    <path fill="#FEFEFE" fill-rule="nonzero" d="M17160.69 1602.73c0,8.08 -6.55,14.64 -14.63,14.64 -8.09,0 -14.63,-6.56 -14.63,-14.64 0,-8.07 6.54,-14.63 14.63,-14.63 8.08,0 14.63,6.56 14.63,14.63z"/>
    <path fill="#FEFEFE" fill-rule="nonzero" d="M17639.33 2449.86c0,8.08 -6.54,14.64 -14.62,14.64 -8.09,0 -14.63,-6.56 -14.63,-14.64 0,-8.08 6.54,-14.64 14.63,-14.64 8.08,0 14.62,6.56 14.62,14.64z"/>
    <path fill="#FEFEFE" fill-rule="nonzero" d="M17251.03 4446.32c0,8.08 -6.55,14.64 -14.64,14.64 -8.08,0 -14.64,-6.56 -14.64,-14.64 0,-8.08 6.55,-14.64 14.64,-14.64 8.08,0 14.64,6.56 14.64,14.64z"/>
    <path fill="#FEFEFE" fill-rule="nonzero" d="M16390.69 4498c0,8.08 -6.55,14.64 -14.63,14.64 -8.08,0 -14.64,-6.56 -14.64,-14.64 0,-8.07 6.55,-14.63 14.64,-14.63 8.08,0 14.63,6.56 14.63,14.63z"/>
    <path fill="#FEFEFE" fill-rule="nonzero" d="M16088.94 1855.92c0,8.08 -6.55,14.64 -14.63,14.64 -8.09,0 -14.64,-6.56 -14.64,-14.64 0,-8.09 6.55,-14.64 14.64,-14.64 8.08,0 14.63,6.54 14.63,14.64z"/>
    <path fill="#FEFEFE" fill-rule="nonzero" d="M16527.27 3475.2c0,8.08 -6.54,14.63 -14.62,14.63 -8.09,0 -14.64,-6.55 -14.64,-14.63 0,-8.08 6.55,-14.64 14.64,-14.64 8.08,0 14.62,6.56 14.62,14.64z"/>
    <path fill="#FEFEFE" fill-rule="nonzero" d="M16405.35 2751.74c0,8.09 -6.55,14.64 -14.63,14.64 -8.08,0 -14.64,-6.54 -14.64,-14.64 0,-8.08 6.55,-14.62 14.64,-14.62 8.08,0 14.63,6.55 14.63,14.62z"/>
    <path fill="#FEFEFE" fill-rule="nonzero" d="M16605.57 754.21c0,8.08 -6.56,14.63 -14.64,14.63 -8.08,0 -14.64,-6.55 -14.64,-14.63 0,-8.08 6.55,-14.64 14.64,-14.64 8.08,0 14.64,6.55 14.64,14.64z"/>
    <path fill="#FEFEFE" fill-rule="nonzero" d="M15867.65 -1518.34c0,8.08 -6.55,14.64 -14.63,14.64 -8.09,0 -14.64,-6.56 -14.64,-14.64 0,-8.08 6.55,-14.64 14.64,-14.64 8.08,0 14.63,6.56 14.63,14.64z"/>
    <path fill="#FEFEFE" fill-rule="nonzero" d="M20485.47 -1357.71c0,8.08 -6.56,14.64 -14.64,14.64 -8.09,0 -14.64,-6.56 -14.64,-14.64 0,-8.08 6.55,-14.64 14.64,-14.64 8.08,0 14.64,6.56 14.64,14.64z"/>
    <path fill="#FEFEFE" fill-rule="nonzero" d="M18055.63 -1670.93c0,8.08 -6.55,14.62 -14.64,14.62 -8.08,0 -14.64,-6.54 -14.64,-14.62 0,-8.09 6.56,-14.64 14.64,-14.64 8.09,0 14.64,6.54 14.64,14.64z"/>
    <path fill="#FEFEFE" fill-rule="nonzero" d="M16839.01 -1499.11c0,8.08 -6.56,14.64 -14.64,14.64 -8.08,0 -14.64,-6.56 -14.64,-14.64 0,-8.08 6.56,-14.64 14.64,-14.64 8.08,0 14.64,6.56 14.64,14.64z"/>
    <path fill="#FEFEFE" fill-rule="nonzero" d="M18931.51 -1465.58c0,8.08 -6.55,14.64 -14.64,14.64 -8.08,0 -14.63,-6.55 -14.63,-14.64 0,-8.08 6.55,-14.64 14.63,-14.64 8.08,0 14.64,6.55 14.64,14.64z"/>
    <path fill="#FEFEFE" fill-rule="nonzero" d="M15595.78 -936.77c0,8.08 -6.55,14.64 -14.64,14.64 -8.08,0 -14.63,-6.56 -14.63,-14.64 0,-8.07 6.55,-14.62 14.63,-14.62 8.09,0 14.64,6.55 14.64,14.62z"/>
    <path fill="#FEFEFE" fill-rule="nonzero" d="M16541.91 -375.71c0,8.08 -6.54,14.63 -14.64,14.63 -8.08,0 -14.62,-6.55 -14.62,-14.63 0,-8.08 6.55,-14.64 14.62,-14.64 8.09,0 14.64,6.55 14.64,14.64z"/>
    <polygon fill="#F28AB8" fill-rule="nonzero" points="21504.49,7508.57 19404.31,7270.2 16934.24,7615.44 19601.59,7845.59 "/>
    <polygon fill="#FEFEFE" fill-rule="nonzero" points="19635.61,7902.12 21472.74,7578.44 21577.18,7700.45 21577.18,7811.55 21525.12,7941.54 21455.95,8026.17 19558.53,8389.15 "/>
    <path fill="#CEBFD3" fill-rule="nonzero" d="M19687.89 8032.61c531.26,-104.53 1065.88,-191.74 1602.88,-260.99 -531.23,104.68 -1065.89,191.6 -1602.88,260.99z"/>
    <path fill="#CEBFD3" fill-rule="nonzero" d="M21525.12 7788.06c-341.83,79.79 -687.62,142.37 -1035.79,187 341.8,-79.95 687.64,-142.24 1035.79,-187z"/>
    <path fill="#CEBFD3" fill-rule="nonzero" d="M19687.89 8227.82c366.56,-82.56 736.93,-147.85 1109.69,-195.21 -366.54,82.7 -736.96,147.72 -1109.69,195.21z"/>
    <path fill="#E4DBE4" fill-rule="nonzero" d="M19666.54 8248.91c16.32,-30.08 29.7,-69.34 33.68,-119.73 2.13,-27.05 0.57,-49.78 -3.48,-68.88l1679.3 -288.67c0,0 17.07,12.56 28.83,32.6 -307.55,43.18 -613.14,100.1 -915.55,170.84 309.12,-39.62 616.38,-93.39 920.62,-160.81 10.79,25.22 10.25,58.99 -33.9,94.02 -74.13,58.79 -1294.73,270.14 -1709.51,340.63zm1131.04 -216.3c-372.76,47.36 -743.13,112.65 -1109.69,195.21 372.73,-47.49 743.15,-112.51 1109.69,-195.21zm-1172.33 -65.05l0 0 1.8 -11.42 0 0 -1.8 11.42z"/>
    <path fill="#CEC3D3" fill-rule="nonzero" d="M19585.15 8334.67l0 0c0.43,-0.2 47.29,-22.91 81.39,-85.76 414.78,-70.49 1635.38,-281.85 1709.51,-340.63 44.15,-35.03 44.69,-68.8 33.9,-94.02 38.45,-8.51 76.81,-17.24 115.17,-26.19 -40.12,5.15 -80.2,10.54 -120.24,16.16 -11.76,-20.05 -28.83,-32.6 -28.83,-32.6l-1679.3 288.67c-2.17,-10.24 -5.06,-19.45 -8.47,-27.72 536.85,-69.39 1071.39,-156.3 1602.49,-260.96 -536.86,69.24 -1071.37,156.42 -1602.5,260.94 -15.91,-38.56 -43.3,-56.65 -63.02,-64.99l1.8 -11.42 1766.46 -313.99c99.75,46.3 132.3,103.73 132.27,158.99 -0.05,104.14 -115.83,200.62 -115.83,200.62l-1824.8 332.9z"/>
    <path fill="#BBAAC4" fill-rule="nonzero" d="M19688.28 8032.57c0,-0.01 0,-0.01 -0.01,-0.02 531.12,-104.52 1065.64,-191.69 1602.5,-260.94 -531.1,104.65 -1065.64,191.56 -1602.49,260.96z"/>
    <path fill="#BBAAC4" fill-rule="nonzero" d="M20489.33 7975.06c302.41,-70.74 608,-127.66 915.55,-170.84 40.05,-5.62 80.12,-11.01 120.24,-16.16 -38.35,8.95 -76.72,17.68 -115.17,26.19 -304.24,67.42 -611.5,121.2 -920.62,160.81z"/>
    <path fill="#BBAAC4" fill-rule="nonzero" d="M19687.89 8227.82c366.56,-82.56 736.93,-147.85 1109.69,-195.21 -366.54,82.7 -736.96,147.72 -1109.69,195.21z"/>
    <path fill="#F28AB8" fill-rule="nonzero" d="M19601.59 7960.67l0 -115.08 1902.9 -337.02c0,0 110.97,61.65 127.41,279.49 16.43,217.82 -180.84,279.47 -180.84,279.47l-1865.91 374 0 -106.87 1824.8 -332.9c0,0 271.26,-226.05 -16.44,-359.62l-1791.93 318.52z"/>
    <path fill="#D75991" fill-rule="nonzero" d="M19585.15 8441.54l0 -106.87 1824.8 -332.9c0,0 115.78,-96.48 115.83,-200.62 0.02,-55.26 -32.52,-112.69 -132.27,-158.99l-1766.46 313.99 0 0 -25.46 4.53 0 -115.08 1902.9 -337.02c0,0 110.97,61.65 127.41,279.49 0.65,8.71 0.97,17.19 0.96,25.41 -0.01,197.24 -181.8,254.06 -181.8,254.06l-1865.91 374z"/>
    <polygon fill="#F28AB8" fill-rule="nonzero" points="19601.59,7960.67 19601.59,7845.59 16934.24,7615.44 16934.24,7730.57 "/>
    <polygon fill="#F28AB8" fill-rule="nonzero" points="19585.15,8334.67 19585.15,8441.54 16882.84,8157.95 16882.84,8071.64 "/>
    <polygon fill="#E469A0" fill-rule="nonzero" points="19601.59,7960.67 16934.24,7730.57 16934.24,7615.44 19601.59,7845.59 "/>
    <polygon fill="#E469A0" fill-rule="nonzero" points="19585.15,8441.54 16882.84,8157.95 16882.84,8071.64 19585.15,8334.67 "/>
    <path fill="#FEFEFE" fill-rule="nonzero" d="M16882.84 8071.64c0,0 228.14,-98.54 51.41,-341.07l2667.34 230.1c0,0 110.98,12.33 98.64,168.5 -12.33,156.19 -115.07,205.49 -115.07,205.49l-2702.32 -263.03z"/>
    <polygon fill="#BBABC3" fill-rule="nonzero" points="19585.15,8334.67 19585.15,8334.67 19585.15,8334.67 "/>
    <path fill="#CCBBD1" fill-rule="nonzero" d="M16883.93 8071.15c7.96,-3.69 57.54,-28.07 89.69,-77.36l0.07 0.01c-32.14,49.3 -81.8,73.67 -89.76,77.35z"/>
    <path fill="#E4DBE4" fill-rule="nonzero" d="M19585.15 8334.67l0 0 -2702.32 -263.03c0,0 0.38,-0.17 1.1,-0.49 7.96,-3.68 57.62,-28.05 89.76,-77.35l2704.34 230.76c-33.8,81.32 -92.39,109.86 -92.88,110.1l0 0 0 0z"/>
    <path fill="#CCBBD1" fill-rule="nonzero" d="M16992.98 7844.07l-0.18 -0.02c-9.39,-32.98 -27.11,-69.82 -56.68,-110.91 29.56,41.06 47.48,77.96 56.87,110.92zm-57.05 -111.17c-0.06,-0.1 -0.14,-0.2 -0.22,-0.31 0.08,0.1 0.16,0.2 0.22,0.31zm-0.63 -0.87c-0.03,-0.05 -0.06,-0.1 -0.1,-0.15 0.04,0.05 0.08,0.1 0.1,0.15zm-0.47 -0.66c-0.04,-0.05 -0.08,-0.1 -0.11,-0.15 0.04,0.05 0.08,0.1 0.11,0.15z"/>
    <path fill="#E4DBE4" fill-rule="nonzero" d="M19696.53 8060.32l-2703.55 -216.25c-9.39,-32.97 -27.31,-69.86 -56.87,-110.92 -0.06,-0.09 -0.12,-0.17 -0.18,-0.25 -0.06,-0.1 -0.14,-0.2 -0.22,-0.31 -0.13,-0.18 -0.27,-0.38 -0.41,-0.56 -0.03,-0.05 -0.06,-0.1 -0.1,-0.15 -0.11,-0.17 -0.25,-0.34 -0.37,-0.51 -0.04,-0.05 -0.08,-0.1 -0.11,-0.15 -0.16,-0.22 -0.31,-0.43 -0.47,-0.64l0 0 2667.34 230.1c0,0 75.58,8.66 94.95,99.65z"/>
    <path fill="#CEBFD3" fill-rule="nonzero" d="M16988.19 7829.38c615.37,50.03 1229.28,117.67 1840.73,203.22 -615.4,-49.88 -1229.27,-117.8 -1840.73,-203.22z"/>
    <path fill="#CEBFD3" fill-rule="nonzero" d="M19687.89 8196.95c-594.77,-43.22 -1188.22,-104.06 -1779.33,-182.86 594.78,43.08 1188.2,104.22 1779.33,182.86z"/>
    <path fill="#CEBFD3" fill-rule="nonzero" d="M17386.34 8014.09c339.33,21.32 677.49,60.26 1012.71,117.09 -339.34,-21.16 -677.47,-60.4 -1012.71,-117.09z"/>
    <path fill="#FEFEFE" fill-rule="nonzero" d="M21674.53 7386.72l28.77 -49.31c0,0 -131.52,-106.86 -110.96,-320.58 20.54,-213.72 143.85,-304.13 143.85,-304.13l-2926.47 95.51 -201.18 397.97 168.49 354.48 2897.5 -173.93z"/>
    <path fill="#CCBBD1" fill-rule="nonzero" d="M21620.57 6887.13c22.26,-62.65 52.38,-107.12 76.3,-135.49l0.16 0c-23.86,28.38 -53.97,72.88 -76.24,135.48l-0.22 0.01z"/>
    <path fill="#E4DBE4" fill-rule="nonzero" d="M18735.14 7008.9c0.56,-2.16 1.12,-4.29 1.7,-6.44 0.04,0 0.04,0 0.04,0l0 0c-0.04,-0.02 -0.02,0 -0.04,-0.02 1.14,-4.24 2.37,-8.54 3.62,-12.79l0.25 0.03c14.79,-50.21 36.63,-100.59 67.86,-149.68l1.15 0.12 20.8 -32.59 -20.8 32.59 2887.16 -88.47c-23.92,28.36 -54.04,72.83 -76.3,135.49l-1181.63 49.86c-568.31,15.71 -1137.18,37.56 -1702.05,65.47 75.51,-0.95 151.01,-2.02 226.63,-3.2l-228.38 9.64z"/>
    <path fill="#CCBBD1" fill-rule="nonzero" d="M21703.3 7337.41c-0.31,-0.26 -50.46,-41.18 -83.89,-122.76l0.09 0c33.43,81.52 83.51,122.52 83.79,122.76z"/>
    <path fill="#E4DBE4" fill-rule="nonzero" d="M18795.96 7533.69c-4.52,-9.94 -9.82,-21.78 -15.43,-34.61 -10.59,-26.48 -22.63,-60.14 -33.48,-99.15l2872.45 -185.28c33.33,81.58 83.48,122.5 83.79,122.76l0 0 0 0 -2907.34 196.27z"/>
    <path fill="#CEBFD3" fill-rule="nonzero" d="M21612.11 6913.24c-954.32,47.01 -1919.83,77.11 -2875.23,89.21 954.32,-47.15 1919.83,-76.98 2875.23,-89.21z"/>
    <path fill="#CEBFD3" fill-rule="nonzero" d="M21592.34 7016.83c-364.66,35.24 -730.98,52.87 -1097.36,52.4 364.66,-35.37 730.98,-52.73 1097.36,-52.4z"/>
    <path fill="#CEBFD3" fill-rule="nonzero" d="M18718.8 7173.02c474.46,-42.44 950.46,-67.26 1426.76,-73.99 -474.44,42.59 -950.46,67.12 -1426.76,73.99z"/>
    <path fill="#CEBFD3" fill-rule="nonzero" d="M18731.98 7304.03c659.3,-60.86 1327.44,-105 1989.05,-131.03 -659.3,61.01 -1327.45,104.88 -1989.05,131.03z"/>
    <path fill="#CEBFD3" fill-rule="nonzero" d="M21612.11 7214.12c-526.06,45.16 -1053.62,72.73 -1581.55,82.2 526.06,-45.31 1053.64,-72.59 1581.55,-82.2z"/>
    <path fill="#CEBFD3" fill-rule="nonzero" d="M18777.03 7444.27c517.56,-42.44 1036.51,-67.25 1555.76,-73.98 -517.54,42.58 -1036.51,67.11 -1555.76,73.98z"/>
    <path fill="#FEFEFE" fill-rule="nonzero" d="M18809.71 7563.45c0,0 -225.85,-415.1 19.06,-753.2l-1634.06 -175.65c0,0 -193.16,143.86 -193.16,361.68 0,217.82 82.2,419.21 82.2,419.21l1725.97 147.95z"/>
    <path fill="#CEC3D3" fill-rule="nonzero" d="M18795.28 7533.73c-4.31,-9.51 -9.34,-21.14 -14.76,-34.65 5.61,12.83 10.91,24.67 15.43,34.61l-0.68 0.04z"/>
    <path fill="#CEC3D3" fill-rule="nonzero" d="M18740.71 6989.68l-0.25 -0.03c14.79,-50.22 36.79,-100.56 68.08,-149.66l0.02 0c-31.23,49.09 -53.07,99.48 -67.86,149.68z"/>
    <path fill="#CEBFD3" fill-rule="nonzero" d="M17080.39 6824.02c553.89,41.76 1106.42,101.13 1656.49,178.44 -553.91,-41.61 -1106.41,-101.27 -1656.49,-178.44z"/>
    <path fill="#CEBFD3" fill-rule="nonzero" d="M17642.7 6979.84c360.39,22 719.65,61.66 1076.1,119.19 -360.41,-21.85 -719.63,-61.78 -1076.1,-119.19z"/>
    <path fill="#CEBFD3" fill-rule="nonzero" d="M17030.31 7020.94c274.36,14.44 547.73,46.59 817.88,96.58 -274.37,-14.3 -547.71,-46.72 -817.88,-96.58z"/>
    <path fill="#CEBFD3" fill-rule="nonzero" d="M17790.65 7255.22c315.02,9.63 629.43,36.94 941.33,82.18 -315.02,-9.48 -629.41,-37.08 -941.33,-82.18z"/>
    <path fill="#E4DBE4" fill-rule="nonzero" d="M18780.53 7499.08c-12.72,-29.12 -26.98,-63.31 -36.98,-91.8l-1510.09 -135.63c0,0 -56.16,-107.32 -48.59,-224.14 219.66,34.99 441.17,58.44 663.32,70.02l0 0c-218.89,-40.51 -439.91,-69.31 -661.84,-86.45 7.43,-63.28 34.95,-127.97 101.32,-178.83 481.53,63.62 964.84,113.81 1449.21,150.21 -8.84,32.44 -14.68,64.75 -18.12,96.56 -356.44,-57.52 -715.69,-97.18 -1076.06,-119.18 356.44,57.39 715.67,97.33 1076.06,119.19 -2.76,25.39 -4.01,50.45 -4.01,74.98 0,58.34 7,113.7 17.18,163.39 -311.88,-45.25 -626.28,-72.55 -941.29,-82.18 311.91,45.09 626.28,72.7 941.3,82.18 13.51,65.93 32.67,121.92 48.58,161.68zm-43.69 -496.64c-183.89,-25.84 -368.12,-49.68 -552.52,-71.53l556.13 58.74c-1.25,4.26 -2.48,8.55 -3.62,12.79zm-1204.81 -140.43c-76.52,-7.11 -153.14,-13.88 -229.73,-20.31 1.7,-1.14 3.39,-2.27 5.14,-3.41l224.6 23.72z"/>
    <path fill="#CEC3D3" fill-rule="nonzero" d="M18780.1 7560.92l0 0 1.04 -26.23 -1668.63 -156.18c0,0 -84.01,-185.53 -84.05,-323.97 0,-11.58 0.59,-22.82 1.85,-33.6l0 0c51.42,9.48 102.92,18.35 154.56,26.56 -7.57,116.82 48.59,224.14 48.59,224.14l1510.09 135.63c9.99,28.49 24.25,62.68 36.98,91.8 5.41,13.51 10.45,25.14 14.76,34.65l-14.15 0.96 -1.04 26.23zm-1593.75 -529.84c-51.97,-4.02 -103.98,-7.39 -156.05,-10.14 14.28,-121.42 47.29,-228.42 123.03,-304.68 32.87,-8.8 65.84,-17.63 98.8,-26.41l1556.41 150.13c-31.29,49.1 -53.29,99.44 -68.08,149.66l-556.13 -58.74c-217.14,-25.72 -434.57,-48.68 -652.29,-68.9l-224.6 -23.72c-1.74,1.13 -3.43,2.27 -5.14,3.41 -73.95,-6.2 -147.92,-12.1 -221.92,-17.68 69.07,9.69 138.15,19.1 207.29,28.23 -66.37,50.86 -93.89,115.54 -101.32,178.83z"/>
    <path fill="#BBAAC4" fill-rule="nonzero" d="M18736.88 7002.46l0 0c-484.37,-36.39 -967.67,-86.59 -1449.21,-150.21 -69.13,-9.13 -138.22,-18.54 -207.29,-28.23 74,5.58 147.96,11.48 221.92,17.68 76.59,6.43 153.21,13.21 229.73,20.31 217.72,20.22 435.15,43.18 652.29,68.9 184.39,21.85 368.63,45.7 552.52,71.53l0 0.02 0.04 0z"/>
    <path fill="#BBAAC4" fill-rule="nonzero" d="M18718.76 7099.03l0 0c-360.39,-21.85 -719.62,-61.8 -1076.06,-119.19 360.37,22 719.62,61.66 1076.06,119.18l0 0.01z"/>
    <path fill="#BBAAC4" fill-rule="nonzero" d="M17848.19 7117.53c-222.15,-11.58 -443.66,-35.03 -663.32,-70.02 -51.64,-8.22 -103.14,-17.08 -154.56,-26.56l0 0c52.07,2.74 104.07,6.11 156.05,10.14 221.93,17.14 442.95,45.94 661.84,86.45z"/>
    <path fill="#BBAAC4" fill-rule="nonzero" d="M18731.95 7337.4c-315.02,-9.48 -629.39,-37.09 -941.3,-82.18 315,9.63 629.41,36.94 941.29,82.18l0.02 0z"/>
    <polygon fill="#F28AB8" fill-rule="nonzero" points="17186.5,6597.62 19097.61,6507.2 21760.84,6683.93 18842.86,6788.2 "/>
    <path fill="#F28AB8" fill-rule="nonzero" d="M18809.71 6840.12l57.74 -90.42 -1680.95 -152.08c0,0 -267.15,115.09 -258.93,439.77 8.21,324.68 143.84,435.64 143.84,435.64l1705.62 164.4 4.11 -102.74 -1668.63 -156.18c0,0 -98.63,-217.83 -82.2,-357.57 16.44,-139.73 57.68,-260.36 160.28,-337.02l1619.12 156.19z"/>
    <path fill="#D75991" fill-rule="nonzero" d="M18777.03 7637.43l-1705.62 -164.4c0,0 -135.63,-110.96 -143.84,-435.64 -0.13,-5.08 -0.2,-10.1 -0.2,-15.07 0.09,-114.01 34.46,-201.31 78.13,-266.22 48.9,-13.23 98.28,-26.54 147.84,-39.84 -75.74,76.25 -108.75,183.25 -123.03,304.68l0 0c-1.26,10.78 -1.85,22.02 -1.85,33.6 0.04,138.44 84.05,323.97 84.05,323.97l1668.63 156.18 -1.04 26.23 -3.07 76.51z"/>
    <polygon fill="#D75991" fill-rule="nonzero" points="18842.86,6788.2 18842.86,6788.2 18867.45,6749.7 "/>
    <path fill="#D75991" fill-rule="nonzero" d="M18809.71 6840.12l-1557.58 -150.25c81.7,-21.76 163.36,-43.31 243.66,-64.26l1371.66 124.09 -24.59 38.51 -33.15 51.91z"/>
    <polygon fill="#F28AB8" fill-rule="nonzero" points="18781.14,7534.69 18777.03,7637.43 21703.3,7427.82 21703.3,7337.41 "/>
    <polygon fill="#F28AB8" fill-rule="nonzero" points="18809.71,6840.12 18867.45,6749.7 21760.84,6683.93 21760.84,6749.7 "/>
    <polygon fill="#E469A0" fill-rule="nonzero" points="18777.03,7637.43 18781.14,7534.69 21703.3,7337.41 21703.3,7427.82 "/>
    <polygon fill="#E469A0" fill-rule="nonzero" points="18809.71,6840.12 18867.45,6749.7 21760.84,6683.93 21760.84,6749.7 "/>
    <path fill="#F28AB8" fill-rule="nonzero" d="M15968.18 6945.89l729.07 -484.03 1519.66 -179.46 961.4 -28.2 2599.01 148.78 288.93 225.88 -2717.41 -74.07c0,0 -109.55,121.34 -362,99.48 -252.47,-21.86 -403.4,-120.68 -403.4,-120.68l-62.61 -172.45 -2552.65 584.76z"/>
    <path fill="#F28AB8" fill-rule="nonzero" d="M18548.5 6323.31c0,0 -1077.98,115.86 -2653.55,649.39 -13.76,4.67 76.07,70.46 76.07,70.46 0,0 2132.58,-608.12 2497.61,-639.39 0,0 46.32,298.79 420.74,316.59 374.4,17.8 448.67,-113.9 448.67,-113.9l2769.06 64.71 -2.4 -82.16c0,0 -2441.7,-117.49 -2830.77,-64.96 0,0 -159.94,117.33 -425.28,70.05 -376.4,-67.08 -300.15,-270.79 -300.15,-270.79z"/>
    <path fill="#F071A8" fill-rule="nonzero" d="M15971.03 7043.16c0,0 -77.65,-56.87 -77.51,-68.61 0.01,-0.88 0.47,-1.52 1.43,-1.84 1484.79,-502.8 2527.66,-634.65 2642.92,-648.18 -12.98,21.36 -17.04,36.61 -17.04,36.61 0,0 -12.4,279.95 362.16,293.64 16.94,0.61 33.15,0.91 48.66,0.91 327.35,0 342.28,-131.62 342.28,-131.62l0 0c71.11,-9.6 210.66,-13.52 391.43,-13.52 694.36,0 1995.6,57.9 2348.89,74.24 17.52,3.6 27.36,5.72 28.67,6.01 0.09,0.02 0.14,0.04 0.14,0.04l0 0c-0.25,-0.14 -0.51,-0.29 -0.77,-0.42 -0.05,-0.04 -0.09,-0.05 -0.14,-0.08 -0.04,-0.02 -0.09,-0.05 -0.13,-0.08 -0.18,-0.09 -0.35,-0.18 -0.52,-0.27 -0.02,-0.03 -0.05,-0.03 -0.08,-0.05 -0.09,-0.04 -0.15,-0.08 -0.25,-0.13 -0.17,-0.09 -0.34,-0.18 -0.51,-0.27 -0.1,-0.06 -0.19,-0.12 -0.3,-0.17 -0.18,-0.11 -0.36,-0.2 -0.55,-0.3 -0.04,-0.03 -0.08,-0.05 -0.13,-0.08 -0.07,-0.02 -0.14,-0.08 -0.22,-0.11 -0.17,-0.09 -0.35,-0.2 -0.52,-0.29 -0.08,-0.05 -0.17,-0.1 -0.26,-0.14 -0.23,-0.13 -0.48,-0.27 -0.72,-0.4 -0.06,-0.04 -0.13,-0.08 -0.2,-0.1 -0.19,-0.12 -0.39,-0.22 -0.58,-0.34 -0.09,-0.05 -0.18,-0.09 -0.27,-0.14 -0.18,-0.1 -0.36,-0.21 -0.55,-0.31 -0.04,-0.03 -0.08,-0.05 -0.12,-0.06 -0.05,-0.02 -0.08,-0.05 -0.13,-0.08 -0.23,-0.13 -0.47,-0.26 -0.72,-0.41 0,0 -0.01,-0.01 -0.02,-0.01 -0.04,-0.02 -0.1,-0.07 -0.14,-0.08 -0.2,-0.13 -0.42,-0.25 -0.62,-0.37 -0.08,-0.04 -0.14,-0.08 -0.22,-0.12 -0.18,-0.12 -0.38,-0.22 -0.57,-0.34 45.66,2.13 70.87,3.34 70.87,3.34l2.4 82.16 -831.15 -19.43 -1937.91 -45.29c0,0 -65.12,115.55 -381.13,115.55 -21.34,0 -43.87,-0.52 -67.53,-1.65 -204.38,-9.7 -311,-103.14 -365.68,-186.02 -45.51,-68.94 -55.06,-130.57 -55.06,-130.57 -139.25,11.93 -535.67,107.79 -972.85,221.83 -80.3,20.95 -161.95,42.5 -243.66,64.26 -32.95,8.78 -65.92,17.6 -98.8,26.41 -49.56,13.3 -98.94,26.61 -147.84,39.84 -548,148.35 -1034.47,287.06 -1034.47,287.06z"/>
    <path fill="#FEFEFE" fill-rule="nonzero" d="M20692.47 5403.12l510.9 -524.84c0,0 -1756.96,246.66 -2333.43,1333.75l-30.63 63.7 144.24 20.44c0,0 -138.97,-470.65 1708.92,-893.04z"/>
    <path fill="#FEFEFE" fill-rule="nonzero" d="M21385.04 5324.53l-914.96 640.49 -1522.55 264.35c0,0 -2.4,-254.04 593.95,-495.23 596.35,-241.21 1097.97,-355.24 1843.55,-409.61z"/>
    <path fill="#EDE5EC" fill-rule="nonzero" d="M18968.17 6156.38c42.61,-92.79 173.19,-260.41 573.32,-422.25 596.35,-241.21 1097.97,-355.24 1843.55,-409.61l-476.29 333.41 0 0 205.71 -144.01c-333.61,35.07 -669.23,57.06 -998.71,119.43 -415.4,78.62 -835.84,234.92 -1140.55,519.51 -2.41,1.19 -4.75,2.35 -7.04,3.51z"/>
    <path fill="#DACCDA" fill-rule="nonzero" d="M18975.21 6152.87c304.71,-284.59 725.15,-440.89 1140.55,-519.51 329.48,-62.37 665.09,-84.36 998.71,-119.43l-205.71 144.01c-447.3,3.82 -830.62,56.55 -1268.9,164.62 -364.4,89.86 -527.68,213 -600.47,300 -24.46,11.03 -45.89,21.25 -64.18,30.31z"/>
    <path fill="#FEFEFE" fill-rule="nonzero" d="M16419.1 5357.88c0,0 1577.53,-46.29 2159.52,450.59 300.11,279 303.14,381.7 303.14,381.7 0,0 -397.64,-99.34 -1065.58,-22.18 -667.94,77.16 -684.49,73.55 -684.49,73.55l-712.58 -883.66z"/>
    <path fill="#FEFEFE" fill-rule="nonzero" d="M16394.67 5646.4l680.71 637.9c0,0 1468.58,-192.06 1779.35,-112.59 0,0 -638.55,-804.9 -2460.05,-525.31z"/>
    <path fill="#EDE5EC" fill-rule="nonzero" d="M18854.72 6171.71l0 0c-0.27,-0.33 -6.78,-8.45 -19.82,-22.36 -432.49,-285.55 -952.19,-434.67 -1470.75,-434.67 -261.78,0 -523.38,38.04 -773.22,115.66l-196.26 -183.93c269.6,-41.37 513.15,-59 732.7,-59 1260.63,0 1725.1,581.46 1727.36,584.3z"/>
    <path fill="#CEBFD3" fill-rule="nonzero" d="M16590.93 5830.33l484.44 453.98c0,0 1468.58,-192.06 1779.35,-112.59 0,0 -6.51,-8.16 -19.82,-22.38 -650.85,-429.73 -1499.15,-550.45 -2243.97,-319.01z"/>
    <path fill="#FEFEFE" fill-rule="nonzero" d="M16287.11 6044.28l693.16 362.06c0,0 1559.31,-387.03 1901.49,-216.16 0,0 -466.42,-319.04 -987.77,-383.02 -670.57,-82.27 -1606.88,237.12 -1606.88,237.12z"/>
    <path fill="#FEFEFE" fill-rule="nonzero" d="M21522.91 5679.06l-996.68 503.99 -1544.67 45.33c0,0 33.72,-251.81 658.3,-405.83 624.57,-154 1137.31,-195.61 1883.05,-143.49z"/>
    <path fill="#FEFEFE" fill-rule="nonzero" d="M16257.37 6291.87l-289.19 654.02c0,0 724.02,-267.95 1020.9,-379.46 296.88,-111.49 1078.66,-372.92 1559.43,-243.12l333.26 -133.13c0,0 -407.77,-304.15 -1031.85,-273.74 -624.08,30.42 -1592.54,375.44 -1592.54,375.44z"/>
    <path fill="#EDE5EC" fill-rule="nonzero" d="M15968.18 6945.89l289.19 -654.02c0,0 968.46,-345.02 1592.54,-375.44 29.75,-1.44 58.91,-2.13 87.65,-2.13 574.28,0 944.2,275.88 944.2,275.88l-0.04 0.02 -5.16 2.07c-13.43,-0.76 -26.36,-1.11 -38.82,-1.11 -185.99,0 -265.84,79.66 -297.72,129.92 -89.76,-23.21 -189.61,-33.08 -294.73,-33.08 -32.51,0 -65.48,0.94 -98.82,2.73 -437.23,23.47 -934.27,191.92 -1157.37,275.71 -296.88,111.51 -1020.9,379.46 -1020.9,379.46z"/>
    <path fill="#CEBFD3" fill-rule="nonzero" d="M18635.07 6105.07c-261.97,-81.69 -543.6,-69.17 -816.26,-38.02 -564.62,64.52 -1120.37,205.99 -1647.27,418.9l-123.75 279.86c313.51,-148.77 647.01,-256.04 978.45,-361.53 446.47,-142.08 911.54,-284.86 1375.68,-220.77 105.02,14.5 208.42,39.94 308.41,75.15l149.11 -59.56c-72,-37.51 -146.47,-69.73 -224.37,-94.03z"/>
    <path fill="#FEFEFE" fill-rule="nonzero" d="M17026.25 6404.29c-331.44,105.49 -664.94,212.76 -978.45,361.53l-79.62 180.07c0,0 724.02,-267.95 1020.9,-379.46 296.88,-111.49 1078.66,-372.92 1559.43,-243.12l161.83 -64.64c-99.98,-35.21 -203.39,-60.65 -308.41,-75.15 -464.14,-64.09 -929.21,78.69 -1375.68,220.77z"/>
    <path fill="#FEFEFE" fill-rule="nonzero" d="M18898.58 6193.81c0,0 468.44,-284.82 1195.47,-306.45 621.66,-18.51 1577.16,221.04 1577.16,221.04 0,0 154.63,365.45 371.87,482.43 0,0 -2004.75,-435.17 -2887.54,-38.63 -77.2,34.69 -256.95,-358.39 -256.95,-358.39z"/>
    <path fill="#EDE5EC" fill-rule="nonzero" d="M22042.93 6590.79c-1.46,-0.31 -13.39,-2.89 -34.63,-7.24 -178.16,-36.52 -1010.62,-198.06 -1789.77,-198.12 872.1,0.02 1810.77,202.4 1824.4,205.35zm-0.63 -0.38c-0.01,-0.01 -0.01,-0.01 -0.03,-0.01 -0.04,-0.03 -0.08,-0.05 -0.11,-0.07 0.05,0.03 0.09,0.04 0.14,0.08zm-0.8 -0.43c-0.01,-0.02 -0.01,-0.02 -0.02,-0.03 -0.01,0 -0.04,-0.01 -0.05,-0.02 0.03,0.02 0.05,0.02 0.08,0.05zm-1.8 -1c-0.04,-0.01 -0.08,-0.04 -0.12,-0.06 -0.04,-0.02 -0.06,-0.03 -0.1,-0.05 0.08,0.04 0.15,0.09 0.22,0.11zm-0.74 -0.4c-0.09,-0.05 -0.17,-0.09 -0.26,-0.14 0.09,0.04 0.18,0.09 0.26,0.14zm-1.76 -0.99c-0.01,0 -0.01,0 -0.03,-0.01 -0.08,-0.04 -0.15,-0.08 -0.23,-0.13l-0.01 0c0.09,0.05 0.18,0.09 0.27,0.14zm-0.82 -0.45c0,0 -0.03,-0.01 -0.04,-0.03 -0.03,-0.01 -0.05,-0.02 -0.08,-0.04 0.04,0.01 0.08,0.04 0.12,0.06zm-0.99 -0.56c-0.01,-0.02 -0.03,-0.02 -0.04,-0.02 -0.04,-0.03 -0.07,-0.04 -0.11,-0.05 0.04,0.01 0.11,0.05 0.14,0.08zm-0.77 -0.44c-0.08,-0.04 -0.14,-0.08 -0.22,-0.12 0.08,0.04 0.14,0.08 0.22,0.12zm-0.91 -0.52c-0.01,-0.01 -0.02,-0.01 -0.05,-0.02 0,-0.02 0,0 -0.01,-0.02l0 0c0.02,0.02 0.04,0.03 0.06,0.04zm-0.92 -0.53l-0.02 -0.01 0 0 0.02 0.01zm-0.78 -0.45c-0.02,-0.02 -0.06,-0.04 -0.09,-0.06 0.03,0.01 0.07,0.04 0.09,0.06z"/>
    <path fill="#EDE5EC" fill-rule="nonzero" d="M21752.74 6267.6c-445,-135.93 -901.45,-234.81 -1365.34,-259.67 -72.9,-3.9 -146,-5.9 -219.16,-5.9 -407.56,0 -816.53,62.13 -1196.46,203.4 -22.69,-5.45 -47.06,-9.42 -73.2,-11.62l0 0c0,0 468.44,-284.82 1195.47,-306.45 23.11,-0.69 46.72,-1.03 70.68,-1.03 620.74,0 1506.47,222.07 1506.47,222.07 0,0 29.77,70.34 81.53,159.2z"/>
    <path fill="#CEBFD3" fill-rule="nonzero" d="M21752.74 6267.6c-445,-135.93 -901.45,-234.81 -1365.34,-259.67 -499.44,-26.76 -1009.3,35.87 -1472.9,219.47 45.59,94.29 177.73,353.24 241.03,324.8 882.79,-396.55 2887.54,38.63 2887.54,38.63 -121.93,-65.66 -224.11,-209.57 -290.33,-323.22z"/>
    <path fill="#FEFEFE" fill-rule="nonzero" d="M21848.12 6411.11c-841.3,-297.75 -1765.84,-360.58 -2638.42,-171.5 -86.06,18.66 -171.79,40.01 -256.24,65.22 59.36,113.36 152.13,269.81 202.06,247.37 882.79,-396.55 2887.54,38.63 2887.54,38.63 -73.3,-39.47 -139.43,-107.25 -194.95,-179.72z"/>
    <path fill="#F28AB8" fill-rule="nonzero" d="M19273.93 6524.06c0,0 -49.45,-302.81 -375.36,-330.25 -325.9,-27.45 -377.75,167.32 -377.75,167.32 0,0 -12.4,279.95 362.16,293.64 374.56,13.68 390.94,-130.71 390.94,-130.71z"/>
    <path fill="#F071A8" fill-rule="nonzero" d="M18919.9 6577.53c-10.28,0 -21.06,-0.2 -32.3,-0.6 -248.66,-9.08 -240.43,-194.95 -240.43,-194.95 0,0 30.03,-112.85 210.39,-112.85 12.69,0 26.17,0.56 40.4,1.76 216.36,18.22 249.2,219.26 249.2,219.26 0,0 -9.89,87.39 -227.25,87.38z"/>
    <path fill="#F28AB8" fill-rule="nonzero" d="M18859.43 3784.5c-113.33,115.15 -261.61,194.22 -421.74,215.75 -9.76,-89.6 -76.59,-352.7 -104.22,-438.9 -99.44,-310.04 -128.15,-385.3 -332.92,-638.45 14.29,-3.13 33.4,-28.87 47.42,-27.83 154.9,11.5 322.4,41.98 436.85,28.67 219.27,238.81 263.91,551.43 374.6,860.75z"/>
    <path fill="#F071A8" fill-rule="nonzero" d="M18438.52 4000.12c16.65,-24.53 32.03,-49.72 46.39,-75.5 0.3,2.46 0.57,4.89 0.86,7.37 124.43,-37.3 237.27,-93.45 333.15,-179.76 7.6,16.38 15.61,32.55 24.09,48.47 -110.86,106.17 -252.3,178.76 -404.5,199.42z"/>
    <path fill="#FEFEFE" fill-rule="nonzero" d="M19241.26 3621.58c-143.28,12.76 -279.43,61.98 -396.14,146.07 -38.03,-96.34 -70.56,-194.87 -97.36,-294.91 -8.57,-31.99 -16.6,-64.27 -29.12,-94.95 -14.32,-35.12 -34.31,-67.57 -53.65,-100.18 -66.49,-112.13 -128.16,-231.03 -181.18,-350.13 97.05,-126.15 238.01,-217.82 392.68,-255.39 52.36,37.66 76.15,87.8 98.64,148.24 22.52,60.46 34.28,124.27 50.17,186.78 21.27,83.71 50,165.3 78.69,246.75 46.6,132.33 90.68,235.41 137.28,367.72z"/>
    <path fill="#EDE5EC" fill-rule="nonzero" d="M18698.5 3276.59c-56.09,-126.05 -126.95,-245.08 -212.72,-351.67 13.4,-17.24 27.63,-33.84 42.59,-49.74 68.47,48.11 145.07,79.81 224.26,95.04 -6.16,22.93 -11.68,44.83 -16.86,64.08 0.01,0 0.02,0 0.02,0.02 -0.81,2.98 -1.59,5.89 -2.38,8.74 -20.97,76.08 -34.54,154.62 -34.91,233.53z"/>
    <path fill="#FEFEFE" fill-rule="nonzero" d="M18484.83 2923.75c-134.07,-25.17 -300.44,-28.43 -436.85,-28.67 240.87,294.35 394.83,658.99 437.79,1036.91 131.25,-39.34 249.6,-99.66 348.75,-194.22 -47.09,-293.12 -163.35,-582.9 -349.69,-814.02z"/>
    <path fill="#E0D3E1" fill-rule="nonzero" d="M18701.13 3339.84c5.28,58.8 18.57,116.61 33.91,173.62 33.32,123.82 77.15,246.24 147.1,353.71 69.95,107.48 167.96,199.72 287.48,246.15 119.54,46.42 261.5,42.5 369.98,-25.84 129.88,-81.82 193.66,-242.51 195.22,-395.99 1.56,-153.5 -50,-302.27 -107.26,-444.69 -70.05,-174.25 -158.06,-354.52 -317.77,-453.3 -78.26,-48.41 -170.65,-72.64 -262.48,-71.6 -61.3,0.67 -169.04,7.03 -212.78,56.6 -53.63,60.76 -79.96,187.82 -101.12,264.57 -26.58,96.4 -41.27,196.74 -32.29,296.78z"/>
    <path fill="#C997BA" fill-rule="nonzero" d="M19533.68 3687.53c-48.81,64.96 -134.96,88.04 -209.41,55.46 -61.76,-27.01 -127.68,-43.19 -194.94,-43.14 -103.46,0.09 -209.35,43.27 -274.49,122.3 8.65,15.26 17.71,30.29 27.29,45.02 69.95,107.48 167.96,199.73 287.48,246.15 119.54,46.42 261.5,42.5 369.98,-25.84 129.88,-81.82 193.66,-242.51 195.22,-395.99 0.59,-58.31 -6.51,-115.93 -18.65,-172.79 -70.25,44.75 -132.47,102.26 -182.5,168.83z"/>
    <path fill="#E0D3E1" fill-rule="nonzero" d="M19918.93 3842.42c-43.4,-102.98 -98.63,-204.1 -183.47,-276.45 -4.07,-3.47 -8.29,-6.79 -12.51,-10.11 -127.91,126.59 -215.1,300.39 -242.9,487.45 13.9,26.11 28.17,52.05 43.14,77.58 33.94,57.83 71.46,115.1 123.61,157.11 52.13,42.02 121.5,67.2 187.1,52.55 86.71,-19.36 144.63,-99.68 192.82,-174.73 -22.95,-109.91 -64.24,-210.08 -107.79,-313.4z"/>
    <path fill="#CAA9C4" fill-rule="nonzero" d="M19723.61 3922.99c-7.19,-3.33 -14.76,-5.89 -22.75,-7.53 -8.46,-1.73 -17.11,-2.35 -25.85,-2.35 -5.12,0 -10.29,0.21 -15.46,0.55 52.43,-79.6 118.6,-148.6 188.96,-211.51 15.81,25.85 30.14,52.73 43.36,80.14 -59.42,43.74 -115.69,90.8 -168.27,140.71z"/>
    <path fill="#E0D3E1" fill-rule="nonzero" d="M19644.32 4003.46c84.11,-91.36 180.15,-174.92 285.3,-248.21 60.22,-41.99 137.43,-82.94 204.22,-62.59 46.28,14.09 72.35,53.89 92.55,92.26 51.77,98.32 86.77,204.4 103.65,314.22 4.06,26.37 5.82,56.66 -15.27,78.59 -24.9,25.93 -70.36,26.97 -102.82,14.62 -32.47,-12.36 -57.62,-34.72 -88.64,-49.28 -5.86,-2.76 -12.32,-5.3 -19.33,-4.57 -10.58,1.09 -19.02,9.1 -25.92,16.65 -47.16,51.74 -84.16,114.86 -150.41,146.36 -56.12,26.68 -111.01,48.66 -168.44,35.27 -73.81,-17.2 -167.62,-100.39 -198.81,-162.13 -33.15,-65.63 31.42,-114.17 83.92,-171.2z"/>
    <path fill="#C997BA" fill-rule="nonzero" d="M20226.4 3784.92c-20.2,-38.37 -46.28,-78.17 -92.55,-92.26 -66.79,-20.36 -144,20.61 -204.22,62.59 -21.53,15.01 -42.58,30.56 -63.33,46.4 -11.48,77.63 -6.6,157.71 17.46,232.3 24.53,76.01 69.47,145.86 129.88,197.86 21.99,-25.07 42.09,-52.12 64.44,-76.66 6.9,-7.56 15.34,-15.56 25.92,-16.65 7.01,-0.73 13.48,1.81 19.33,4.57 31.02,14.56 56.16,36.92 88.64,49.28 32.46,12.35 77.92,11.3 102.82,-14.62 21.09,-21.93 19.33,-52.22 15.27,-78.59 -16.89,-109.82 -51.89,-215.9 -103.65,-314.22z"/>
    <path fill="#CAA9C4" fill-rule="nonzero" d="M20014.32 4231.02c0.06,-0.08 0.12,-0.14 0.18,-0.21 -0.06,0.07 -0.12,0.14 -0.18,0.21z"/>
    <path fill="#B480A8" fill-rule="nonzero" d="M20013.63 4231.81c-60.4,-52 -105.35,-121.84 -129.88,-197.86 -15.89,-49.24 -23.4,-100.87 -23.38,-152.61 0.01,-26.65 2.03,-53.3 5.92,-79.69 17.21,-13.15 34.71,-26.01 52.44,-38.6 -21.1,154.26 22.67,317.25 119.66,439.18 -7.86,9.63 -15.74,19.25 -23.89,28.57 -0.06,0.07 -0.12,0.14 -0.18,0.21 -0.24,0.26 -0.45,0.52 -0.69,0.79l0 0z"/>
    <path fill="#38283E" fill-rule="nonzero" d="M20314.55 4177.98c0.08,-0.08 0.14,-0.16 0.22,-0.25 0.66,-0.68 1.3,-1.38 1.91,-2.07l0 0c-0.61,0.69 -1.25,1.39 -1.91,2.07 -0.08,0.09 -0.16,0.17 -0.22,0.25z"/>
    <path fill="#38283E" fill-rule="nonzero" d="M20133.84 3692.66c-2.28,-0.7 -4.57,-1.33 -6.87,-1.88 2.3,0.55 4.59,1.17 6.87,1.88z"/>
    <path fill="#B480A8" fill-rule="nonzero" d="M20254.39 4199.96c-83.13,-58.35 -134.08,-160.21 -165.24,-259.65 -23.3,-74.39 -39.31,-155.25 -15.86,-229.59 2.45,-7.77 5.45,-15.5 9.13,-22.79 4.71,-0.43 9.39,-0.66 14.05,-0.66 10.3,0 20.51,1.11 30.5,3.51 2.3,0.55 4.59,1.17 6.87,1.88l0 0c46.28,14.09 72.35,53.89 92.55,92.26 51.77,98.32 86.77,204.4 103.65,314.22 1.42,9.17 2.55,18.81 2.54,28.42 -0.02,17.14 -3.68,34.16 -15.9,48.11 -0.61,0.69 -1.25,1.39 -1.91,2.07 -0.08,0.09 -0.14,0.17 -0.22,0.25 -15.08,15.52 -37.57,21.99 -60.16,21.99z"/>
    <path fill="#38283E" fill-rule="nonzero" d="M19884.79 4320.56l0 0c12.53,-5.01 25.06,-10.65 37.64,-16.56 -12.58,5.92 -25.11,11.55 -37.64,16.56zm39.04 -17.23c0.11,-0.04 0.21,-0.09 0.3,-0.14 -0.09,0.05 -0.19,0.1 -0.3,0.14z"/>
    <path fill="#B480A8" fill-rule="nonzero" d="M19493.58 3972.34c6.84,-32.03 15.22,-63.43 27.71,-94.83 -10.94,30.94 -20.2,62.62 -27.71,94.83z"/>
    <path fill="#CAA9C4" fill-rule="nonzero" d="M19511.36 4067.12c-8.16,-17.65 -16.85,-35.06 -26.18,-52.12 2.65,-14.37 5.37,-28.58 8.39,-42.66 7.51,-32.21 16.77,-63.89 27.71,-94.83 0.04,-0.12 0.09,-0.23 0.14,-0.37 8.26,12.92 25.53,22.34 38.82,29.75 14.49,8.08 30.34,10.4 46.79,10.4 11.06,0 22.4,-1.04 33.81,-2.1 6.23,-0.57 12.47,-1.15 18.71,-1.54 -17.29,26.24 -33.09,53.63 -47.06,82.34 -3.75,7.72 -7.34,15.53 -10.79,23.44 -29.31,11.33 -57.88,27.17 -83.6,43.4 -0.04,0.03 -0.08,0.05 -0.11,0.07 -0.36,0.23 -0.72,0.45 -1.09,0.69l0 0c-1.85,1.17 -3.71,2.35 -5.55,3.53z"/>
    <path fill="#B58CB0" fill-rule="nonzero" d="M19601.71 4019.44c3.45,-7.91 7.04,-15.73 10.79,-23.44 13.97,-28.71 29.77,-56.1 47.06,-82.34 5.16,-0.34 10.33,-0.55 15.46,-0.55 8.74,0 17.39,0.62 25.85,2.35 7.99,1.64 15.56,4.2 22.75,7.53 -27.45,26.07 -53.91,52.91 -79.28,80.47 -1.24,1.35 -2.48,2.69 -3.73,4.03 -12.99,2.88 -25.99,6.98 -38.88,11.95z"/>
    <path fill="#CAA9C4" fill-rule="nonzero" d="M19884.79 4320.56c-11.72,-53.94 -27.88,-106.84 -48.34,-158.17 -7.55,-18.9 -15.66,-37.59 -24.36,-56.05l0 0c-17.92,-38 -41.25,-77.56 -84.18,-94.67 -1.37,-0.55 -2.78,-1.08 -4.2,-1.59l0 0c-1,-0.35 -1.99,-0.69 -2.99,-1 -3.54,-1.15 -7.11,-2.12 -10.71,-2.94 0,0 0,0 -0.01,0 -9.79,-2.21 -19.83,-3.23 -29.99,-3.23 -12.97,0 -26.18,1.65 -39.42,4.58 1.25,-1.34 2.5,-2.68 3.73,-4.03 25.37,-27.56 51.83,-54.4 79.28,-80.47 37.95,17.55 65.08,56.4 87.01,93.52 52.17,88.27 95.62,181.68 129.76,278.35 -4.13,2.34 -8.35,4.58 -12.73,6.66l0 0c-1.17,0.56 -2.34,1.12 -3.52,1.67 -0.09,0.05 -0.19,0.1 -0.3,0.14 -0.47,0.22 -0.94,0.44 -1.4,0.66 -12.58,5.92 -25.11,11.55 -37.64,16.56z"/>
    <path fill="#C997BA" fill-rule="nonzero" d="M19058.23 2999.34c103.56,-42.96 197.43,-108.88 273.51,-191.18 -7.21,-5.01 -14.43,-10.02 -21.95,-14.68 -78.26,-48.4 -170.65,-72.63 -262.48,-71.59 -61.3,0.67 -169.04,7.03 -212.78,56.6 -51.66,58.54 -77.97,178.47 -98.76,255.8 105.02,26.29 221.04,7.12 322.45,-34.96z"/>
    <path fill="#CAA9C4" fill-rule="nonzero" d="M18794.16 3694.7c-7.8,-19.56 -15.13,-39.37 -22.03,-59.31 98.8,-39.35 188.11,-103.07 263.48,-178.71 30.02,-30.11 58.23,-62.46 82.01,-97.63 5.55,13.43 11.15,26.86 16.78,40.27 -36.91,48.33 -81.27,91.12 -126.78,131.74 -66.93,59.73 -137.6,116.01 -213.46,163.64zm-95.68 -414.15c0,-0.17 0,-0.34 0,-0.51 -0.01,-80.06 13.65,-159.79 34.93,-236.98 0.8,-2.85 1.58,-5.77 2.38,-8.74 32.92,8.23 66.91,11.99 101.19,11.99 30.81,0 61.86,-3.04 92.58,-8.62 -61.93,56.78 -119.87,117.91 -173.23,182.82 -17.63,21.44 -35.67,43.97 -57.86,60.04z"/>
    <path fill="#B480A8" fill-rule="nonzero" d="M18836.99 3046.31c-34.28,0 -68.28,-3.76 -101.19,-11.99 5.18,-19.25 10.68,-41.16 16.85,-64.09 36.56,7.02 73.63,10.54 110.73,10.54 53.86,0 107.75,-7.41 159.99,-22.28 -1.66,4.89 -3.16,9.84 -4.49,14.83 -16.97,5.96 -32.25,14.17 -43.56,23.85 -15.48,13.24 -30.73,26.75 -45.74,40.52 -30.72,5.58 -61.77,8.62 -92.58,8.62z"/>
    <path fill="#E0D3E1" fill-rule="nonzero" d="M19637.68 4458.36c-57.04,74.14 -124.92,153.35 -219.83,170.59 -71.79,13.05 -145,-14 -198.49,-57.52 -53.47,-43.52 -90.16,-101.99 -122.93,-160.92 -90.4,-162.6 -157.84,-336.91 -200.12,-517.31 24.51,-55.46 74.08,-104.73 135.81,-120.98 117.57,-30.96 243.81,11.55 330.56,86.36 86.74,74.82 139.61,177.78 179.58,282.31 40.11,104.86 77.99,206.51 95.42,317.47z"/>
    <path fill="#E0D3E1" fill-rule="nonzero" d="M19220.92 4298.96c88.07,-87.56 187.71,-166.79 296,-235.37 62.03,-39.27 140.95,-76.78 206.8,-53.51 45.6,16.13 69.89,57.04 88.37,96.26 47.37,100.52 77.63,208.05 89.65,318.5 2.91,26.53 3.31,56.85 -18.72,77.85 -26.03,24.8 -71.49,23.82 -103.38,10.04 -31.89,-13.78 -56.02,-37.22 -86.36,-53.15 -5.74,-3.02 -12.09,-5.83 -19.12,-5.41 -10.63,0.62 -19.41,8.25 -26.63,15.5 -49.4,49.61 -89.15,111.02 -156.74,139.56 -57.24,24.18 -113.06,43.7 -169.83,27.8 -73,-20.45 -163.03,-107.71 -191.46,-170.77 -30.21,-67.03 36.44,-112.66 91.41,-167.31z"/>
    <path fill="#CAA9C4" fill-rule="nonzero" d="M19180.82 4337.17c-2.31,-18.67 1.06,-38.06 7.57,-57.64 22.91,-68.64 63.26,-133.55 123.36,-173.86 35.81,-24 76.01,-37.47 116.27,-37.47 21.37,0 42.71,3.79 63.47,11.77 -8.62,5.67 -17.18,11.41 -25.7,17.21 -66.73,21.15 -124.35,69.48 -175.08,119.38 -25.22,24.81 -49.99,50.91 -68.34,80.94 -0.48,0.48 -0.96,0.96 -1.46,1.45 -13.19,13.11 -27.06,25.71 -40.1,38.21z"/>
    <path fill="#CAA9C4" fill-rule="nonzero" d="M19193.79 4373.4c-7.35,-11.64 -11.42,-23.78 -12.97,-36.23 13.04,-12.5 26.91,-25.1 40.1,-38.21 0.49,-0.49 0.98,-0.96 1.46,-1.45 -4.55,7.44 -8.7,15.13 -12.39,23.09 -7.72,16.76 -13.19,34.57 -16.2,52.8zm272 -276.21c8.51,-5.8 17.07,-11.54 25.7,-17.21 0.02,0.01 0.05,0.01 0.06,0.03 -8.51,5.62 -16.94,11.31 -25.33,17.04 -0.14,0.05 -0.29,0.09 -0.43,0.14z"/>
    <path fill="#C997BA" fill-rule="nonzero" d="M19812.09 4106.34c-18.49,-39.22 -42.77,-80.13 -88.37,-96.26 -65.85,-23.28 -144.77,14.23 -206.8,53.51 -22.18,14.05 -43.9,28.65 -65.32,43.57 -14.9,77.03 -13.57,157.27 7.17,232.83 21.14,77.03 62.96,148.8 121.01,203.4 23.08,-24.06 44.35,-50.21 67.77,-73.71 7.22,-7.25 16,-14.87 26.63,-15.5 7.02,-0.41 13.38,2.4 19.12,5.41 30.34,15.92 54.47,39.37 86.36,53.15 31.89,13.78 77.35,14.75 103.38,-10.04 22.03,-21 21.62,-51.33 18.72,-77.85 -12.02,-110.46 -42.28,-217.98 -89.65,-318.5z"/>
    <path fill="#CAA9C4" fill-rule="nonzero" d="M19580.46 4542.68c0.09,-0.09 0.18,-0.19 0.28,-0.29 -0.1,0.09 -0.19,0.19 -0.28,0.29zm0.94 -0.98c0.04,-0.05 0.09,-0.09 0.13,-0.14 -0.04,0.04 -0.09,0.09 -0.13,0.14z"/>
    <path fill="#B480A8" fill-rule="nonzero" d="M19579.77 4543.39c-58.04,-54.6 -99.87,-126.36 -121.01,-203.4 -11.58,-42.21 -17.11,-85.88 -17.14,-129.63 -0.02,-34.57 3.39,-69.19 9.97,-103.2 17.77,-12.39 35.81,-24.46 54.1,-36.26 -27.89,153.19 8.62,317.95 100.13,444.05 -8,8.98 -16.03,17.92 -24.29,26.6 -0.04,0.06 -0.09,0.09 -0.13,0.14 -0.22,0.24 -0.44,0.46 -0.66,0.69 -0.1,0.09 -0.19,0.19 -0.28,0.29 -0.24,0.25 -0.46,0.48 -0.69,0.72l0 0z"/>
    <path fill="#B58CB0" fill-rule="nonzero" d="M19723.71 4010.08c-1,-0.35 -1.99,-0.69 -2.99,-1 1,0.31 1.99,0.65 2.99,1z"/>
    <path fill="#B480A8" fill-rule="nonzero" d="M19826.83 4522.34c-1.7,0 -3.41,-0.04 -5.11,-0.12 -80.47,-61.97 -126.87,-165.97 -153.61,-266.7 -20,-75.34 -32.41,-156.84 -5.7,-230.06 2.8,-7.66 6.13,-15.23 10.14,-22.38 2.51,-0.12 5,-0.17 7.49,-0.17 13.9,0 27.55,1.88 40.69,6.16 1,0.31 1.99,0.65 2.99,1l0 0c45.6,16.13 69.89,57.04 88.37,96.26 47.37,100.52 77.63,208.05 89.65,318.5 0.81,7.35 1.42,15 1.42,22.66 -0.03,19.97 -4.22,40.02 -20.14,55.19l0 0c-14.57,13.88 -35.24,19.64 -56.19,19.64z"/>
    <path fill="#F28AB8" fill-rule="nonzero" d="M19018.05 2976.54c-19.19,77.05 8.74,154.39 37.04,226.69 62.43,159.48 128.32,317.8 204.51,471.62 13.91,28.09 28.39,56.36 49.88,79.88 21.48,23.52 50.98,42.18 84.94,45.7 42,4.37 83.75,-14.43 121.88,-33.64 127.44,-64.18 248.67,-139.47 361.38,-224.42 28.54,-21.52 57.44,-44.69 73.11,-75.13 13.98,-27.14 16.09,-57.68 13.93,-86.88 -6.84,-92.71 -53.36,-176.62 -99,-257.77 -35.73,-63.52 -71.66,-127.34 -118.33,-184.26 -56.71,-69.16 -128.94,-127.29 -211.33,-170.07 -55.75,-28.95 -116.76,-51.05 -181.45,-58.13 -71.71,-7.83 -179.11,-2.72 -218.71,62.84 -40.32,66.73 -99.15,128.42 -117.86,203.57z"/>
    <path fill="#C57BA8" fill-rule="nonzero" d="M19515.67 3767.12c0.01,-0.02 0.02,-0.02 0.04,-0.03 -0.02,0.01 -0.03,0.01 -0.04,0.03z"/>
    <path fill="#3C273D" fill-rule="nonzero" d="M19781.57 3611.07l0 0c32.67,-22.13 64.73,-45.05 96.12,-68.7 28.54,-21.52 57.44,-44.69 73.11,-75.13 11.03,-21.42 14.67,-44.95 14.66,-68.28 0.01,23.33 -3.63,46.86 -14.66,68.28 -15.67,30.43 -44.56,53.61 -73.11,75.13 -31.39,23.65 -63.45,46.57 -96.12,68.7z"/>
    <path fill="#C57BA8" fill-rule="nonzero" d="M19515.96 3766.96c0.12,-0.05 0.24,-0.1 0.34,-0.17 24.97,-12.57 49.69,-25.58 74.16,-38.98l0 0c-24.47,13.4 -49.19,26.41 -74.16,38.98 -0.12,0.06 -0.22,0.12 -0.34,0.17z"/>
    <path fill="#F071A8" fill-rule="nonzero" d="M19431.85 3798.57c41.35,-16.6 77.88,-45.66 104.12,-80 38.47,-50.33 57.02,-110.79 65.12,-170.59 7.37,-54.41 6.65,-109.34 -2.15,-162.77 -22.18,-134.68 -94.34,-255.48 -171.61,-369.38 -29.86,-44.01 -61.15,-87.97 -103.43,-122.19 -25.56,-20.7 -54.14,-37.06 -84.8,-50 10.28,-8.68 20.35,-17.76 30.14,-27.25 33.66,-32.6 62.54,-68.27 86.63,-106.12 64.22,7.22 124.81,29.23 180.19,57.99 82.38,42.77 154.61,100.9 211.33,170.07 46.66,56.92 82.6,120.75 118.33,184.26 45.64,81.15 92.15,165.06 99,257.77 0.46,6.15 0.72,12.37 0.73,18.6 0.01,23.33 -3.63,46.86 -14.66,68.28 -15.67,30.43 -44.56,53.61 -73.11,75.13 -31.39,23.65 -63.45,46.57 -96.12,68.7 -61.64,41.76 -125.45,80.74 -191.1,116.74 -24.47,13.4 -49.19,26.41 -74.16,38.98 -0.1,0.06 -0.22,0.12 -0.34,0.17 -0.08,0.05 -0.16,0.09 -0.26,0.13 -0.02,0.01 -0.03,0.01 -0.04,0.03 -26.57,13.36 -54.89,26.29 -83.81,31.46z"/>
    <path fill="#E0D3E1" fill-rule="nonzero" d="M18975.32 2997.17c-79.31,67.87 -152.67,142.7 -218.97,223.33 -24.29,29.52 -49.33,61.13 -84.93,75.06 -17.37,6.79 -36.17,8.87 -54.69,10.89 -38.7,4.22 -77.4,8.43 -116.09,12.64 -14.42,1.58 -29.21,3.13 -43.26,-0.48 -27,-6.92 -46.31,-31.39 -72.61,-40.56 -25.15,-8.76 -55.18,-1.29 -73.27,18.25 -29.9,-17.84 -68.8,-11.83 -90.97,15.03 -22.17,26.84 -21.36,69.9 1.82,95.89 -26.68,27.61 -11.25,82.24 25.93,91.8 -27.02,25.23 0.82,69.76 30.64,91.61 112.63,82.48 263.25,104.13 399.53,73.81 136.27,-30.34 258.63,-108.86 357.18,-207.75 47.24,-47.39 90.03,-100.3 118.02,-161.08 22.65,-49.2 35.21,-103.03 36.65,-157.17 1.44,-53.94 -9.45,-110.98 -45.02,-151.54 -35.58,-40.57 -128.96,-24.8 -169.95,10.29z"/>
    <path fill="#C997BA" fill-rule="nonzero" d="M18557 3312.96c-18.8,2.06 -37.59,4.1 -56.37,6.14 -14.42,1.58 -29.21,3.13 -43.26,-0.48 -27,-6.92 -46.31,-31.39 -72.61,-40.56 -25.16,-8.76 -55.18,-1.29 -73.27,18.25 -29.9,-17.84 -68.8,-11.83 -90.97,15.03 -22.17,26.84 -21.36,69.9 1.82,95.89 -26.68,27.61 -11.25,82.24 25.93,91.8 -27.02,25.23 0.82,69.76 30.64,91.61 101.46,74.3 233.69,99.08 358.55,81.15 -59.12,-109.13 -87.36,-234.87 -80.45,-358.81z"/>
    <path fill="#CAA9C4" fill-rule="nonzero" d="M18635.57 3672.02c0.06,0 0.13,-0.01 0.18,-0.02 -0.05,0.01 -0.12,0.02 -0.18,0.02zm0.84 -0.11c0.34,-0.05 0.69,-0.11 1.04,-0.14l0 0c-0.35,0.04 -0.69,0.09 -1.04,0.14z"/>
    <path fill="#E2C6D8" fill-rule="nonzero" d="M18497.43 3319.45c0,-0.02 0,-0.03 0,-0.03l3.2 -0.33c-1.07,0.12 -2.14,0.24 -3.2,0.36z"/>
    <path fill="#B480A8" fill-rule="nonzero" d="M18578.65 3676.89c-52.86,-113.28 -91.68,-235.38 -81.22,-357.44 1.06,-0.12 2.13,-0.24 3.2,-0.36l0 0c18.78,-2.04 37.57,-4.08 56.37,-6.14 -0.69,12.35 -1.03,24.71 -1.03,37.08 0.05,111.75 28.25,223.47 81.48,321.73 -0.35,0.04 -0.7,0.09 -1.04,0.14 -0.22,0.02 -0.44,0.06 -0.66,0.09 -0.05,0.01 -0.12,0.02 -0.18,0.02 -18.85,2.64 -37.88,4.19 -56.92,4.87z"/>
    <path fill="#E2C6D8" fill-rule="nonzero" d="M18311.49 3296.3c-1.64,-0.99 -3.31,-1.89 -5,-2.72 -0.73,-3.07 2.01,-6.15 4.95,-6.15 0.8,0 1.61,0.22 2.38,0.75 1.21,0.81 2.37,1.67 3.5,2.56 -1.94,1.63 -3.79,3.37 -5.53,5.22 -0.1,0.12 -0.2,0.22 -0.3,0.34z"/>
    <path fill="#B480A8" fill-rule="nonzero" d="M18396.06 3391.91c-1.59,0 -3.23,-0.49 -4.79,-1.64 -17.38,-12.76 -33.11,-28.36 -47.81,-44.1 -7.57,-8.12 -14.72,-16.55 -21.49,-25.34 -6.31,-8.19 -12.54,-17.01 -15.43,-27.05 -0.01,-0.06 -0.04,-0.13 -0.05,-0.2 1.69,0.83 3.36,1.73 5,2.72 0.1,-0.12 0.19,-0.22 0.3,-0.34 1.74,-1.85 3.59,-3.59 5.53,-5.22 7.01,5.56 12.88,12.51 18.78,19.19 6.79,7.72 13.74,15.35 20.85,22.77 14.52,15.16 30.45,28.4 46.15,42.27 6.79,6.01 0.4,16.94 -7.02,16.94z"/>
    <path fill="#B480A8" fill-rule="nonzero" d="M18291.24 3468.89c-1.32,0 -2.74,-0.39 -4.16,-1.29 -12.29,-7.75 -24.29,-16.21 -35.1,-25.94 -10.59,-9.54 -21.11,-19.59 -28.57,-31.82 -1.69,-2.77 0.81,-6.44 3.69,-6.44 0.68,0 1.39,0.22 2.05,0.69 11.16,7.94 21.12,17.38 32.06,25.62 11.08,8.35 22.28,16.54 34.1,23.83 7.49,4.63 2.86,15.36 -4.07,15.36z"/>
    <path fill="#38283E" fill-rule="nonzero" d="M18247.77 3499.5c0.04,-0.19 0.09,-0.38 0.14,-0.57 0.12,0.04 0.24,0.07 0.35,0.09 -0.17,0.16 -0.33,0.31 -0.49,0.48z"/>
    <path fill="#B480A8" fill-rule="nonzero" d="M18310.39 3549.35c-3.32,0 -6.7,-1.98 -9.59,-3.36 -2.89,-1.38 -5.72,-2.85 -8.52,-4.41 -5.47,-3.05 -10.73,-6.39 -15.81,-10.05 -10.73,-7.74 -20.96,-16.56 -27.99,-27.91 -0.8,-1.29 -0.99,-2.75 -0.72,-4.14 0.17,-0.17 0.32,-0.33 0.49,-0.48l0 0c-0.12,-0.02 -0.23,-0.05 -0.35,-0.09 0.37,-1.23 1.12,-2.37 2.16,-3.19 1.11,-0.89 2.3,-1.27 3.5,-1.27 1.59,0 3.17,0.68 4.54,1.74 9.71,7.56 17.98,15.3 27.81,22 5.04,3.42 10.25,6.56 15.64,9.39 2.69,1.41 5.43,2.74 8.19,4.01 1.31,0.6 2.67,1.11 3.93,1.81 2.6,1.43 3.81,3.21 4.89,5.98 1.67,4.23 -1.85,7.94 -5.33,9.39 -0.94,0.39 -1.9,0.56 -2.87,0.56z"/>
    <path fill="#E0D3E1" fill-rule="nonzero" d="M19282.39 1991.39c224.2,231.45 218.31,600.82 -13.14,825.01 -231.45,224.19 -600.82,218.3 -825.01,-13.14 -224.19,-231.47 -218.31,-600.84 13.14,-825.03 231.45,-224.19 600.82,-218.3 825.01,13.15z"/>
    <path fill="#D2C2D5" fill-rule="nonzero" d="M18827.78 2965.69c-134.61,0 -269.05,-50.59 -372.41,-151.28 66.6,64.37 153.04,109.53 251.52,124.84 24.23,3.77 48.27,5.59 72.05,5.59 212.03,0 399.84,-145.27 451.06,-353.7 0.01,-0.01 0.01,-0.04 0.01,-0.05 0.16,-0.63 0.31,-1.26 0.47,-1.91 0,-0.01 0.02,-0.04 0.02,-0.06 0.15,-0.63 0.3,-1.25 0.45,-1.88 0,-0.04 0.01,-0.08 0.02,-0.12 0.14,-0.62 0.29,-1.23 0.43,-1.86 0.01,-0.05 0.03,-0.06 0.03,-0.1 0.14,-0.62 0.29,-1.25 0.43,-1.86 0.02,-0.04 0.03,-0.09 0.03,-0.13 0.14,-0.61 0.29,-1.23 0.41,-1.86 0.02,-0.04 0.03,-0.08 0.04,-0.12 0.13,-0.59 0.27,-1.23 0.4,-1.83 0.01,-0.05 0.02,-0.12 0.02,-0.17 0.08,-0.3 0.14,-0.61 0.21,-0.91 0,-0.01 0,-0.04 0.01,-0.05 0.05,-0.29 0.12,-0.57 0.18,-0.86 0.01,-0.05 0.02,-0.12 0.04,-0.17 0.07,-0.3 0.12,-0.6 0.18,-0.9 0.01,-0.04 0.01,-0.05 0.02,-0.09 0.05,-0.29 0.1,-0.53 0.17,-0.82 0.01,-0.07 0.02,-0.12 0.04,-0.18 0.06,-0.29 0.13,-0.61 0.18,-0.9 0.01,-0.04 0.01,-0.06 0.02,-0.1 0.05,-0.27 0.12,-0.55 0.16,-0.82 0.02,-0.05 0.03,-0.12 0.03,-0.17 0.06,-0.3 0.13,-0.59 0.19,-0.91 0,-0.03 0.01,-0.07 0.01,-0.09 0.07,-0.27 0.12,-0.55 0.17,-0.82 0.01,-0.05 0.03,-0.12 0.04,-0.18 0.05,-0.29 0.12,-0.59 0.17,-0.88 0.01,-0.05 0.02,-0.1 0.04,-0.16 0.05,-0.26 0.1,-0.52 0.14,-0.78 0.01,-0.07 0.02,-0.12 0.04,-0.17 0.05,-0.3 0.12,-0.6 0.17,-0.89 0.02,-0.06 0.02,-0.13 0.04,-0.19 0.05,-0.25 0.09,-0.49 0.14,-0.74 0.02,-0.05 0.03,-0.13 0.04,-0.19 0.05,-0.29 0.1,-0.57 0.17,-0.87 0.01,-0.07 0.03,-0.14 0.04,-0.2 0.04,-0.25 0.09,-0.51 0.13,-0.76 0.01,-0.06 0.02,-0.12 0.04,-0.18 0.05,-0.29 0.1,-0.59 0.17,-0.87 0,-0.06 0.02,-0.16 0.04,-0.21 0.04,-0.25 0.09,-0.51 0.13,-0.74 0.02,-0.07 0.03,-0.13 0.04,-0.18 0.05,-0.3 0.1,-0.6 0.16,-0.9 0.01,-0.05 0.02,-0.12 0.02,-0.17 0.05,-0.26 0.1,-0.53 0.14,-0.8 0.01,-0.05 0.02,-0.1 0.02,-0.15 0.05,-0.3 0.1,-0.59 0.16,-0.88 0.02,-0.07 0.02,-0.13 0.04,-0.21 0.05,-0.26 0.09,-0.5 0.13,-0.77 0.02,-0.05 0.03,-0.1 0.04,-0.15 0.04,-0.3 0.09,-0.57 0.14,-0.86 0.01,-0.1 0.03,-0.17 0.04,-0.26 0.05,-0.25 0.09,-0.52 0.13,-0.77 0.02,-0.04 0.03,-0.09 0.03,-0.13 0.06,-0.3 0.1,-0.6 0.16,-0.88 0,-0.08 0.01,-0.14 0.03,-0.22 0.05,-0.26 0.09,-0.52 0.13,-0.8 0.01,-0.04 0.01,-0.09 0.02,-0.13 0.05,-0.3 0.09,-0.59 0.14,-0.88 0.01,-0.08 0.02,-0.14 0.04,-0.22 0.04,-0.26 0.09,-0.55 0.13,-0.81 0,-0.05 0.01,-0.08 0.01,-0.13 0.05,-0.29 0.09,-0.57 0.14,-0.86 0.01,-0.09 0.02,-0.16 0.04,-0.23 0.04,-0.3 0.09,-0.61 0.14,-0.9l0 0c3.77,-24.3 5.59,-48.45 5.59,-72.28 -0.12,-225.28 -164.2,-423.15 -393.76,-458.87 -24.24,-3.76 -48.28,-5.59 -72.07,-5.59 -225.35,0 -423.36,164.14 -459.08,393.77 -22.7,145.92 25.07,286.55 118.02,387.24 -197.49,-212.22 -189.65,-544.43 19.53,-747.06 103.68,-100.43 237.64,-150.41 371.41,-150.41 139.5,0 278.82,54.32 383.55,162.45 19.19,19.82 36.53,40.72 52.04,62.54 -32.3,44.33 -41.29,114.97 -18.49,185.64 21.81,67.56 67.19,118.1 116.68,137.33 -3.56,134.75 -57.79,268.25 -162.27,369.44 -103.68,100.43 -237.63,150.41 -371.41,150.41z"/>
    <path fill="#D2D3D5" fill-rule="nonzero" d="M18849.86 2019.94c253.85,39.49 427.64,277.29 388.17,531.15 -39.49,253.86 -277.29,427.64 -531.14,388.16 -253.87,-39.48 -427.66,-277.28 -388.17,-531.14 39.49,-253.87 277.29,-427.64 531.14,-388.17z"/>
    <path fill="#9A7EA1" fill-rule="nonzero" d="M19230 2591.15c0.01,-0.01 0.01,-0.04 0.01,-0.05 0,0.02 0,0.04 -0.01,0.05zm0.48 -1.97c0,-0.01 0.02,-0.04 0.02,-0.06 0,0.02 -0.02,0.05 -0.02,0.06zm0.47 -1.94c0,-0.02 0.01,-0.09 0.02,-0.12 -0.01,0.04 -0.02,0.08 -0.02,0.12zm0.45 -1.98c0.01,-0.04 0.03,-0.08 0.03,-0.1 0,0.04 -0.02,0.06 -0.03,0.1zm0.45 -1.97c0.02,-0.05 0.03,-0.08 0.03,-0.13 0,0.04 -0.01,0.09 -0.03,0.13zm0.44 -1.99c0.02,-0.04 0.03,-0.08 0.04,-0.12 -0.02,0.04 -0.03,0.08 -0.04,0.12zm0.45 -1.95c0.01,-0.06 0.01,-0.1 0.02,-0.17 0,0.05 -0.01,0.12 -0.02,0.17zm0.23 -1.08c0,-0.01 0,-0.04 0.01,-0.05 -0.01,0.01 -0.01,0.04 -0.01,0.05zm0.2 -0.91c0.01,-0.05 0.02,-0.1 0.04,-0.17 -0.01,0.05 -0.02,0.12 -0.04,0.17zm0.22 -1.06c0.01,-0.02 0.01,-0.08 0.02,-0.09 -0.01,0.04 -0.01,0.05 -0.02,0.09zm0.2 -0.91c0.01,-0.07 0.02,-0.12 0.04,-0.18 -0.01,0.06 -0.03,0.11 -0.04,0.18zm0.22 -1.08c0.01,-0.04 0.01,-0.06 0.02,-0.1 -0.02,0.04 -0.02,0.07 -0.02,0.1zm0.19 -0.92c0.02,-0.05 0.03,-0.12 0.03,-0.17 0,0.05 -0.02,0.12 -0.03,0.17zm0.23 -1.08c0,-0.03 0.01,-0.07 0.01,-0.09 0,0.02 -0.01,0.06 -0.01,0.09zm0.18 -0.91c0.01,-0.05 0.03,-0.12 0.04,-0.18 -0.01,0.06 -0.03,0.13 -0.04,0.18zm0.21 -1.06c0.01,-0.05 0.02,-0.1 0.04,-0.16 -0.02,0.06 -0.03,0.11 -0.04,0.16zm0.18 -0.94c0.01,-0.07 0.02,-0.12 0.04,-0.17 -0.01,0.05 -0.03,0.1 -0.04,0.17zm0.2 -1.06c0.02,-0.06 0.02,-0.13 0.04,-0.19 -0.02,0.06 -0.02,0.13 -0.04,0.19zm0.18 -0.94c0.02,-0.08 0.03,-0.12 0.04,-0.19 -0.01,0.06 -0.02,0.14 -0.04,0.19zm0.21 -1.06c0.01,-0.05 0.03,-0.14 0.04,-0.2 -0.01,0.05 -0.03,0.13 -0.04,0.2zm0.17 -0.95c0.01,-0.06 0.02,-0.12 0.04,-0.18 -0.01,0.06 -0.03,0.12 -0.04,0.18zm0.2 -1.05c0.02,-0.08 0.02,-0.14 0.04,-0.21 -0.02,0.05 -0.04,0.14 -0.04,0.21zm0.17 -0.95c0.02,-0.07 0.03,-0.13 0.04,-0.18 -0.01,0.05 -0.02,0.11 -0.04,0.18zm0.2 -1.08c0.01,-0.07 0.01,-0.1 0.02,-0.17 0,0.05 -0.01,0.12 -0.02,0.17zm0.17 -0.96c0.01,-0.06 0.02,-0.09 0.02,-0.15 0,0.05 -0.01,0.1 -0.02,0.15zm0.18 -1.04c0.02,-0.05 0.02,-0.14 0.04,-0.21 -0.02,0.08 -0.02,0.14 -0.04,0.21zm0.17 -0.98c0.02,-0.05 0.03,-0.12 0.04,-0.15 -0.01,0.05 -0.02,0.1 -0.04,0.15zm0.18 -1.01c0.01,-0.09 0.03,-0.17 0.04,-0.26 -0.01,0.09 -0.02,0.15 -0.04,0.26zm0.16 -1.03c0.02,-0.04 0.02,-0.09 0.03,-0.13 0,0.04 -0.01,0.09 -0.03,0.13zm0.18 -1.01c0.01,-0.08 0.01,-0.14 0.03,-0.22 -0.02,0.08 -0.03,0.14 -0.03,0.22zm0.16 -1.02c0.01,-0.04 0.01,-0.08 0.02,-0.13 -0.01,0.04 -0.01,0.09 -0.02,0.13zm0.17 -1.01c0.01,-0.08 0.02,-0.14 0.04,-0.22 -0.02,0.08 -0.03,0.14 -0.04,0.22zm0.17 -1.03c0.01,-0.05 0.01,-0.08 0.01,-0.13 0,0.05 -0.01,0.08 -0.01,0.13zm0.16 -0.99c0.01,-0.08 0.02,-0.16 0.04,-0.23 -0.02,0.08 -0.03,0.14 -0.04,0.23z"/>
    <path fill="#A9ABAE" fill-rule="nonzero" d="M18936.35 2917.18c92.66,-70.27 159.33,-175.05 178.61,-299.03 39.49,-253.87 -134.3,-491.66 -388.16,-531.14 -24.2,-3.76 -48.23,-5.59 -71.97,-5.59 -54.76,0 -107.91,9.71 -157.51,27.66 79,-59.9 176.89,-94.71 280.6,-94.71 23.72,0 47.77,1.82 71.95,5.58 229.56,35.71 393.65,233.59 393.76,458.87 0,23.84 -1.82,47.98 -5.59,72.28l0 0c-0.06,0.29 -0.11,0.6 -0.14,0.9 -0.02,0.08 -0.03,0.16 -0.04,0.23 -0.04,0.29 -0.09,0.57 -0.14,0.86 0,0.05 0,0.08 -0.01,0.13 -0.04,0.26 -0.09,0.55 -0.13,0.81 -0.02,0.08 -0.03,0.14 -0.04,0.22 -0.05,0.3 -0.09,0.59 -0.14,0.88 -0.01,0.05 -0.01,0.09 -0.02,0.13 -0.04,0.27 -0.08,0.53 -0.13,0.8 -0.02,0.08 -0.02,0.14 -0.03,0.22 -0.05,0.29 -0.1,0.59 -0.16,0.88 -0.01,0.04 -0.01,0.09 -0.03,0.13 -0.04,0.26 -0.08,0.52 -0.13,0.77 -0.01,0.09 -0.02,0.16 -0.04,0.26 -0.06,0.29 -0.11,0.57 -0.14,0.86 -0.01,0.04 -0.02,0.1 -0.04,0.15 -0.04,0.25 -0.08,0.51 -0.13,0.77 -0.02,0.07 -0.02,0.16 -0.04,0.21 -0.05,0.3 -0.1,0.59 -0.16,0.88 0,0.06 -0.01,0.09 -0.02,0.15 -0.04,0.27 -0.09,0.54 -0.14,0.8 -0.01,0.06 -0.01,0.1 -0.02,0.17 -0.05,0.3 -0.1,0.6 -0.16,0.9 -0.01,0.05 -0.02,0.11 -0.04,0.18 -0.05,0.25 -0.09,0.48 -0.13,0.74 -0.02,0.07 -0.02,0.13 -0.04,0.21 -0.06,0.29 -0.12,0.57 -0.17,0.87 -0.01,0.06 -0.03,0.12 -0.04,0.18 -0.04,0.25 -0.09,0.49 -0.13,0.76 -0.01,0.05 -0.03,0.14 -0.04,0.2 -0.06,0.3 -0.12,0.58 -0.17,0.87 -0.01,0.08 -0.02,0.12 -0.04,0.19 -0.05,0.26 -0.09,0.49 -0.14,0.74 -0.02,0.06 -0.02,0.13 -0.04,0.19 -0.05,0.3 -0.12,0.59 -0.17,0.89 -0.01,0.05 -0.03,0.1 -0.04,0.17 -0.04,0.25 -0.09,0.52 -0.14,0.78 -0.02,0.06 -0.03,0.11 -0.04,0.16 -0.05,0.3 -0.12,0.59 -0.17,0.88 -0.01,0.06 -0.03,0.13 -0.04,0.18 -0.05,0.27 -0.12,0.55 -0.17,0.82 0,0.02 -0.01,0.06 -0.01,0.09 -0.06,0.3 -0.13,0.61 -0.19,0.91 0,0.05 -0.02,0.12 -0.03,0.17 -0.05,0.27 -0.11,0.54 -0.16,0.82 -0.02,0.04 -0.02,0.07 -0.02,0.1 -0.07,0.3 -0.12,0.6 -0.18,0.9 -0.01,0.06 -0.03,0.11 -0.04,0.18 -0.06,0.27 -0.12,0.55 -0.17,0.82 -0.01,0.01 -0.01,0.08 -0.02,0.09 -0.06,0.3 -0.13,0.59 -0.18,0.9 -0.01,0.06 -0.02,0.12 -0.04,0.17 -0.07,0.3 -0.13,0.57 -0.18,0.86 -0.01,0.01 -0.01,0.04 -0.01,0.05 -0.08,0.31 -0.13,0.6 -0.21,0.91 -0.01,0.07 -0.01,0.1 -0.02,0.17 -0.14,0.6 -0.27,1.23 -0.4,1.83 -0.02,0.04 -0.03,0.08 -0.04,0.12 -0.13,0.63 -0.27,1.25 -0.41,1.86 0,0.05 -0.01,0.08 -0.03,0.13 -0.14,0.61 -0.28,1.24 -0.43,1.86 0,0.02 -0.02,0.06 -0.03,0.1 -0.14,0.61 -0.29,1.25 -0.43,1.86 -0.01,0.02 -0.02,0.09 -0.02,0.12 -0.16,0.62 -0.3,1.25 -0.45,1.88 0,0.02 -0.02,0.05 -0.02,0.06 -0.15,0.64 -0.31,1.28 -0.47,1.91 0,0.02 0,0.04 -0.01,0.05 -38,154.61 -151.19,274.45 -293.66,326.02z"/>
    <path fill="#C997BA" fill-rule="nonzero" d="M19509.68 2222.99c32.73,101.41 -0.03,202.77 -73.17,226.39 -73.15,23.61 -158.98,-39.46 -191.73,-140.87 -32.73,-101.42 0.03,-202.76 73.18,-226.38 73.14,-23.61 158.99,39.45 191.72,140.86z"/>
    <path fill="#B480A8" fill-rule="nonzero" d="M19439.21 2448.3c-63.21,-9.04 -125.64,-68.33 -153.03,-153.16 -27.38,-84.83 -11.4,-169.43 34.59,-213.72 9.5,-2.77 19.21,-4.1 28.95,-4.1 17.73,0 35.65,4.4 52.89,12.58 -8.87,0.06 -17.69,1.42 -26.29,4.2 -45.68,14.74 -72.79,65.23 -72.82,125.16l0 0c-0.01,19.45 2.83,39.9 8.81,60.44l0 0.01c0.14,0.47 0.29,0.94 0.42,1.39 0,0.02 0,0.02 0.01,0.03 0.05,0.21 0.12,0.42 0.18,0.64 0.02,0.04 0.03,0.06 0.04,0.1 0.13,0.44 0.26,0.88 0.39,1.3 0.01,0.05 0.04,0.1 0.05,0.16 0.05,0.17 0.1,0.34 0.15,0.52 0.02,0.05 0.03,0.09 0.05,0.13 0.07,0.21 0.13,0.42 0.2,0.64 0.01,0.04 0.02,0.09 0.04,0.13 0.05,0.17 0.1,0.34 0.15,0.51 0.03,0.05 0.04,0.11 0.07,0.18 0.06,0.2 0.13,0.41 0.2,0.62l0 0c0.41,1.27 0.83,2.54 1.26,3.79 0.18,0.52 0.35,1.04 0.53,1.55 0.12,0.33 0.25,0.68 0.36,1.01 24.97,70.31 80.25,117.31 133.55,117.31 9.07,0 18.08,-1.37 26.88,-4.2 8.6,-2.78 16.55,-6.83 23.78,-11.97 -14.26,25.91 -35.14,45.41 -61.42,54.73z"/>
    <path fill="#E0D3E1" fill-rule="nonzero" d="M19538.89 2213.57c27.77,86 -0.01,171.94 -62.04,191.96 -62.03,20.03 -134.82,-33.46 -162.58,-119.46 -27.77,-86 0.02,-171.94 62.06,-191.96 62.02,-20.02 134.81,33.46 162.57,119.46z"/>
    <path fill="#E0D3E1" fill-rule="nonzero" d="M19538.89 2213.57c27.77,86 -0.01,171.94 -62.04,191.96 -62.03,20.03 -134.82,-33.46 -162.58,-119.46 -27.77,-86 0.02,-171.94 62.06,-191.96 62.02,-20.02 134.81,33.46 162.57,119.46z"/>
    <path fill="#E0D3E1" fill-rule="nonzero" d="M19538.89 2213.57c27.77,86 -0.01,171.94 -62.04,191.96 -62.03,20.03 -134.82,-33.46 -162.58,-119.46 -27.77,-86 0.02,-171.94 62.06,-191.96 62.02,-20.02 134.81,33.46 162.57,119.46z"/>
    <path fill="#E0D3E1" fill-rule="nonzero" d="M19538.89 2213.57c27.77,86 -0.01,171.94 -62.04,191.96 -62.03,20.03 -134.82,-33.46 -162.58,-119.46 -27.77,-86 0.02,-171.94 62.06,-191.96 62.02,-20.02 134.81,33.46 162.57,119.46z"/>
    <path fill="#E0D3E1" fill-rule="nonzero" d="M19538.89 2213.57c27.77,86 -0.01,171.94 -62.04,191.96 -62.03,20.03 -134.82,-33.46 -162.58,-119.46 -27.77,-86 0.02,-171.94 62.06,-191.96 62.02,-20.02 134.81,33.46 162.57,119.46z"/>
    <path fill="#E0D3E1" fill-rule="nonzero" d="M19538.89 2213.57c27.77,86 -0.01,171.94 -62.04,191.96 -62.03,20.03 -134.82,-33.46 -162.58,-119.46 -27.77,-86 0.02,-171.94 62.06,-191.96 62.02,-20.02 134.81,33.46 162.57,119.46z"/>
    <path fill="#E0D3E1" fill-rule="nonzero" d="M19538.89 2213.57c27.77,86 -0.01,171.94 -62.04,191.96 -62.03,20.03 -134.82,-33.46 -162.58,-119.46 -27.77,-86 0.02,-171.94 62.06,-191.96 62.02,-20.02 134.81,33.46 162.57,119.46z"/>
    <path fill="#E0D3E1" fill-rule="nonzero" d="M19538.89 2213.57c27.77,86 -0.01,171.94 -62.04,191.96 -62.03,20.03 -134.82,-33.46 -162.58,-119.46 -27.77,-86 0.02,-171.94 62.06,-191.96 62.02,-20.02 134.81,33.46 162.57,119.46z"/>
    <path fill="#A9769F" fill-rule="nonzero" d="M19316.41 2292.43c-0.11,-0.34 -0.25,-0.68 -0.36,-1.01 0.12,0.33 0.25,0.68 0.36,1.01zm-0.9 -2.56c-0.43,-1.25 -0.84,-2.51 -1.26,-3.79l0 0c0.41,1.27 0.83,2.54 1.26,3.79zm-1.45 -4.41c-0.03,-0.07 -0.04,-0.13 -0.07,-0.18 0.03,0.05 0.04,0.11 0.07,0.18zm-0.22 -0.69c-0.02,-0.04 -0.03,-0.09 -0.04,-0.13 0.01,0.04 0.02,0.09 0.04,0.13zm-0.24 -0.77c-0.02,-0.04 -0.04,-0.08 -0.05,-0.13 0.02,0.04 0.03,0.09 0.05,0.13zm-0.2 -0.65c-0.02,-0.05 -0.04,-0.1 -0.05,-0.16 0.01,0.05 0.04,0.1 0.05,0.16zm-0.44 -1.46c-0.02,-0.04 -0.03,-0.06 -0.04,-0.1 0.02,0.02 0.03,0.06 0.04,0.1zm-0.22 -0.74c-0.01,-0.01 -0.01,-0.01 -0.01,-0.03 0,0.02 0,0.02 0.01,0.03zm-0.43 -1.42l0 -0.01 0 0.01z"/>
    <path fill="#D2C2D5" fill-rule="nonzero" d="M19449.96 2409.74c-53.3,0 -108.58,-47.01 -133.55,-117.31 -0.11,-0.34 -0.25,-0.68 -0.36,-1.01 -0.18,-0.51 -0.35,-1.03 -0.53,-1.55 -0.43,-1.25 -0.84,-2.51 -1.26,-3.79l0 0c-0.07,-0.21 -0.13,-0.42 -0.2,-0.62 -0.03,-0.07 -0.04,-0.13 -0.07,-0.18 -0.05,-0.17 -0.1,-0.34 -0.15,-0.51 -0.02,-0.04 -0.03,-0.09 -0.04,-0.13 -0.06,-0.21 -0.14,-0.43 -0.2,-0.64 -0.02,-0.04 -0.04,-0.09 -0.05,-0.13 -0.05,-0.17 -0.1,-0.35 -0.15,-0.52 -0.02,-0.05 -0.04,-0.1 -0.05,-0.16 -0.13,-0.43 -0.26,-0.87 -0.39,-1.3 -0.02,-0.04 -0.03,-0.08 -0.04,-0.1 -0.06,-0.21 -0.13,-0.43 -0.18,-0.64 -0.01,-0.01 -0.01,-0.01 -0.01,-0.03 -0.14,-0.45 -0.28,-0.92 -0.42,-1.39l0 -0.01c-16.94,-58.15 -8.6,-115.46 18.24,-151.67 -6.99,31.78 -5.39,68.84 6.58,105.92 23.82,73.81 80.81,123.66 135.69,123.66 9.07,0 18.08,-1.37 26.88,-4.2 18.52,-5.99 33.92,-17.94 45.76,-33.92 -9.19,41.91 -33.35,74.65 -68.63,86.04 -8.8,2.83 -17.81,4.2 -26.88,4.2z"/>
    <path fill="#FEFEFE" fill-rule="nonzero" d="M19613.28 256.65c-34.23,-1.8 -61.76,-35.77 -63.53,-78.23 -1.77,42.53 -29.4,76.55 -63.72,78.23l0 0.17c34.32,1.68 61.96,35.69 63.72,78.23 1.77,-42.47 29.3,-76.44 63.53,-78.23l0.02 -0.09 -0.02 -0.08z"/>
    <path fill="#FEFEFE" fill-rule="nonzero" d="M18636.6 -61.03c-34.23,-1.8 -61.76,-35.77 -63.53,-78.23 -1.76,42.53 -29.4,76.55 -63.72,78.23l0 0.17c34.32,1.68 61.96,35.69 63.72,78.23 1.77,-42.47 29.3,-76.44 63.53,-78.23l0.01 -0.09 -0.01 -0.08z"/>
    <path fill="#FEFEFE" fill-rule="nonzero" d="M19740.54 -891.55c-34.23,-1.8 -61.76,-35.77 -63.53,-78.23 -1.77,42.53 -29.4,76.55 -63.72,78.23l0 0.17c34.32,1.68 61.96,35.69 63.72,78.23 1.77,-42.47 29.3,-76.44 63.53,-78.23l0.02 -0.09 -0.02 -0.08z"/>
    <path fill="#FEFEFE" fill-rule="nonzero" d="M18182.89 -734.91c-34.23,-1.8 -61.77,-35.77 -63.54,-78.23 -1.76,42.54 -29.4,76.55 -63.72,78.23l0 0.17c34.32,1.68 61.96,35.7 63.72,78.23 1.77,-42.47 29.32,-76.44 63.54,-78.23l0 -0.17z"/>
    <path fill="#FEFEFE" fill-rule="nonzero" d="M20456.19 17.37c-34.23,-1.8 -61.77,-35.77 -63.54,-78.23 -1.76,42.54 -29.4,76.55 -63.72,78.23l0 0.17c34.32,1.68 61.96,35.7 63.72,78.23 1.77,-42.47 29.32,-76.44 63.54,-78.23l0 -0.17z"/>
    <path fill="#FEFEFE" fill-rule="nonzero" d="M18636.61 847.16c0,8.08 -6.55,14.64 -14.62,14.64 -8.09,0 -14.64,-6.56 -14.64,-14.64 0,-8.08 6.54,-14.64 14.64,-14.64 8.08,0 14.62,6.56 14.62,14.64z"/>
   </g>
  </g>
  <path fill="none" d="M572.62 0l22628.46 0c314.95,0 572.62,257.68 572.62,572.62l0 7264.07c0,314.95 -257.68,572.62 -572.62,572.62l-22628.46 0c-314.95,0 -572.62,-257.68 -572.62,-572.62l0 -7264.07c0,-314.95 257.68,-572.62 572.62,-572.62z"/>
 </g>
</svg>
