<?xml version="1.0" encoding="UTF-8"?>
<!DOCTYPE svg PUBLIC "-//W3C//DTD SVG 1.1//EN" "http://www.w3.org/Graphics/SVG/1.1/DTD/svg11.dtd">
<!-- Creator: CorelDRAW 2018 (64 Bit Versão de avaliação) -->
<svg xmlns="http://www.w3.org/2000/svg" xml:space="preserve" width="2.91612cm" height="3.23891cm" version="1.1" shape-rendering="geometricPrecision" text-rendering="geometricPrecision" image-rendering="optimizeQuality" fill-rule="evenodd" clip-rule="evenodd"
viewBox="0 0 484.32 537.93"
 xmlns:xlink="http://www.w3.org/1999/xlink">
 <g id="Camada_x0020_1">
  <metadata id="CorelCorpID_0Corel-Layer"/>
  <g id="_1754545941696">
   <g>
    <path fill="#FF4A92" d="M82.98 161.86l318.44 -0.02c-0.99,13.07 -23.53,296.57 -25.79,304.15 -3.45,11.56 -13.87,19.05 -28.15,19.05l-210.54 0c-34.98,0 -29.9,-35.03 -32.17,-61.45 -2.49,-29.08 -4.78,-58.3 -7.29,-87.53 -4.97,-57.9 -10.1,-116.18 -14.49,-174.2zm104.48 -107.91l108.65 0 0.83 53.95 -108.71 0 -0.78 -53.95zm-67.57 483.98l244.63 0c12.11,-6.25 16.01,-1.29 38.58,-19.12 26.94,-21.29 27.11,-53.1 29.83,-86.05l13.52 -162.21c2.88,-35.49 7.18,-72.37 8.93,-107.98 8.97,-3 10.24,-0.69 18.67,-6.49 7.14,-4.91 5.88,-8.12 10.28,-15.07l0 -12.44c-3.17,-5 -3.11,-8.01 -7.55,-12.58 -10.73,-11.05 -31.54,-8.65 -50.35,-8.16 -23.38,0.61 -53.14,1.28 -76.2,-0.03 -3.73,-21.61 4.32,-53.45 -4.13,-73.75 -12.33,-29.61 -34.36,-29.82 -43.1,-34.03l-121.59 0c-8.74,4.21 -30.78,4.42 -43.11,34.01 -8.43,20.23 -0.4,52.16 -4.12,73.77 -35.05,1.99 -72.78,-1.75 -107.83,0.19 -28.5,1.58 -33.27,34.52 -17.26,47.24 8,6.35 10.43,4.17 19.94,7.35 1.73,35.27 5.98,71.85 8.85,106.96 2.95,36.17 5.91,72 9.01,108.17 1.84,21.46 5.81,89.93 10.9,105.69 4.51,13.99 14.89,28.47 22.92,34.96 22.24,17.99 26.97,13.28 39.18,19.58z"/>
    <path fill="#FF4A92" d="M290.43 216.4c-24.47,5.75 -21.39,28.74 -21.39,45.72l-0.01 134.75c-0.02,11.61 1.86,20.32 7.87,26.36 5,5.03 15.39,9.56 25.94,6.9 23.91,-6.02 20.16,-31.13 20.16,-45.89l0.01 -134.77c0.02,-11.46 -1.72,-19.58 -7.63,-25.8 -4.79,-5.04 -15.03,-9.6 -24.95,-7.27z"/>
    <path fill="#FF4A92" d="M182.93 216.27c-9.81,2.13 -14.99,7.45 -18.58,14.33 -4.37,8.38 -2.94,20.23 -2.94,30.47l-0 134.75c-0.03,12.23 -0.12,18.38 7.17,26.25 13.63,14.69 35.67,10.34 43.62,-5.74 4.38,-8.85 3.16,-20.36 3.16,-31.03l0.01 -134.74c0.03,-11.83 -1.3,-19.78 -7.71,-26.5 -4.81,-5.05 -14.46,-10 -24.73,-7.77z"/>
   </g>
  </g>
 </g>
</svg>
