<?xml version="1.0" encoding="UTF-8"?>
<!DOCTYPE svg PUBLIC "-//W3C//DTD SVG 1.1//EN" "http://www.w3.org/Graphics/SVG/1.1/DTD/svg11.dtd">
<!-- Creator: CorelDRAW 2018 (64 Bit Versão de avaliação) -->
<svg xmlns="http://www.w3.org/2000/svg" xml:space="preserve" width="3.96875cm" height="3.93516cm" version="1.1" shape-rendering="geometricPrecision" text-rendering="geometricPrecision" image-rendering="optimizeQuality" fill-rule="evenodd" clip-rule="evenodd"
viewBox="0 0 1555.82 1542.66"
 xmlns:xlink="http://www.w3.org/1999/xlink">
 <g id="Camada_x0020_1">
  <metadata id="CorelCorpID_0Corel-Layer"/>
  <g id="_1911464292976">
   <g>
    <path fill="gray" d="M-0 340.16l0 1080.35c1.12,1.79 2.47,2.46 2.97,5.59l10.14 21.56c39.2,87.41 104.45,90.13 194.34,89.93l981.86 -0.53c150.75,-13.12 258.86,-115.3 303.06,-230.91 42.41,-110.93 24.61,-383.03 24.61,-519.98 -25.09,12.25 -44.8,38.26 -63.81,59.12 -19.48,21.38 -35.09,42.68 -55.45,62.29 -71.89,69.23 -70.65,36.72 -70.56,164.88 0.07,109.58 12.34,275.96 -192.96,276.33 -69.14,0.13 -898.1,5.68 -944.14,-3.09 -3.73,-311.27 -1.17,-625.84 -0.3,-937.36 0.56,-200.26 139.98,-199.97 266.63,-199.93 149.88,0.04 85.71,5.96 169.72,-65.61 26.51,-22.59 92.91,-94.41 111.95,-122.71 -105.65,-10.15 -419.6,-10.45 -503.6,21.42 -92.43,35.08 -166.04,110.6 -202.16,192.01 -16.46,37.12 -20.8,81.6 -32.29,106.64z"/>
    <path fill="gray" d="M1555.82 310.83l0 -22.39 -147.41 -147.2c-179.93,-185.86 -163.22,-159.34 -232.2,-84.39l-194.77 199.17c-46.24,41.73 -84.3,90.39 -126.79,136.19 -30.85,33.26 -105.74,96.8 -127.62,133.99l309.74 317.96c36.61,-16.13 104.86,-101.63 131.72,-131.49l129.85 -132.86c40.85,-46.19 86.57,-89.17 128.9,-133.68l128.58 -135.28z"/>
    <path fill="gray" d="M600.88 669l-48.23 373.3 368.53 -82.27 -305.97 -300.83c-3.35,2.16 -9.35,5.57 -14.32,9.8z"/>
   </g>
   <path fill="gray" d="M-0 1542.66l1189.31 0 0 -5.6 -981.86 0.53c-89.89,0.2 -155.13,-2.52 -194.34,-89.93l-10.14 -21.56c-0.5,-3.13 -1.85,-3.8 -2.97,-5.59l0 122.15z"/>
   <path fill="gray" d="M600.88 669c4.98,-4.23 10.97,-7.64 14.32,-9.8 -6.92,-10.55 10.59,-7.91 -12.07,-8.81l-2.25 18.61z"/>
  </g>
 </g>
</svg>
