<?xml version="1.0" encoding="UTF-8"?>
<!DOCTYPE svg PUBLIC "-//W3C//DTD SVG 1.1//EN" "http://www.w3.org/Graphics/SVG/1.1/DTD/svg11.dtd">
<!-- Creator: CorelDRAW 2018 (64 Bit Versão de avaliação) -->
<svg xmlns="http://www.w3.org/2000/svg" xml:space="preserve" width="4.31209in" height="1.35102in" version="1.1" shape-rendering="geometricPrecision" text-rendering="geometricPrecision" image-rendering="optimizeQuality" fill-rule="evenodd" clip-rule="evenodd"
viewBox="0 0 4312.07 1351.02"
 xmlns:xlink="http://www.w3.org/1999/xlink">
 <g id="Camada_x0020_1">
  <metadata id="CorelCorpID_0Corel-Layer"/>
  <g id="_1703527736464">
   <g>
    <path fill="#FF4A92" d="M519.55 405.66c-100.07,13.65 -186.38,105.18 -171.05,222.62 14.41,110.35 117.09,184.2 224.1,170.58 100.7,-12.81 184.52,-105.13 170.15,-221.74 -12.61,-102.33 -105.76,-187.48 -223.2,-171.46l0.01 0z"/>
    <path fill="#FF4A92" d="M752.4 347.77c3.69,2.89 45.02,22.81 60.42,32.82 50.57,32.88 88.54,65.97 126.4,111.81 7.06,8.54 13.39,17.65 20.41,27.25 53.77,73.54 90.85,178.63 90.83,291.82 0,276.94 -230.35,502.99 -507.27,502.69 -277.04,-0.3 -505.88,-224.32 -505.88,-508.19 0,-107.79 37.89,-207.37 86.03,-278.78 15.54,-23.05 24.59,-31.93 39.87,-51.73l45.56 -46.03c56.56,-47.17 52.66,-39.17 108.89,-74.32 -0.27,-0.33 -0.75,-1.24 -0.88,-0.95l-11.95 -11.78c-4.59,-4.49 -8.54,-8.43 -11.94,-13.51 -12.24,2.56 -50.8,28.66 -60.7,35.89 -10.28,7.52 -18.1,12.78 -27.39,20.31 -44.76,36.27 -83.81,78.06 -115.35,126.66 -237.23,365.62 26.06,838.81 453.75,839.28 299.22,0.32 544.33,-241.92 544.16,-541.38 -0.07,-127.03 -47.44,-251.4 -114.68,-334.16 -25.75,-31.69 -42.89,-50.53 -72.94,-77.35l-27.6 -21.95c-21.35,-15.94 -71.72,-50.85 -94.34,-57.45 -5.44,5.46 -8.17,9.35 -13.02,14.24 -4.98,5.02 -9.12,9.46 -12.38,14.8l0 0.01z"/>
    <path fill="#FF4A92" d="M539.58 855.46c-14.61,-4.88 -37.44,0.19 -84.62,-18.08 -24.14,-9.34 -65.29,-33.96 -78.55,-49.74 -4.97,-5.91 -6.82,-7.87 -12.77,-12.82 -13.21,-11 -33.88,-43.89 -42.11,-60.53 -5.74,-11.61 -9.38,-24.54 -15.09,-36.08 -168.18,26.83 -218.27,248.77 -88.63,348.76 74.56,57.52 171.35,59.89 244.57,4.24 8.75,-6.65 12.02,-9.27 19.16,-17.48 6.57,-7.56 3.9,-1.93 17.6,-19.08 5.25,-6.57 10.1,-13.49 14.94,-21.73 13.74,-23.41 35.83,-84.21 25.52,-117.44l0 -0.02z"/>
    <path fill="#FF4A92" d="M555.79 853.62c-5.89,40.68 8.53,89.26 26.56,118.41 5.29,8.54 9.13,14.31 14.89,21.78 10.07,13.04 23.99,26.82 36.94,36.45 78.81,58.56 175.5,47.64 243.88,-4.88 25.59,-19.65 48.61,-52.68 60.56,-84.33 35.73,-94.68 -9.2,-203.48 -95.77,-246.03 -16.09,-7.9 -35.89,-16.69 -55.88,-18.08 -9.25,15.48 -9.39,32.68 -33.56,67.99 -35.55,51.95 -89.17,88.47 -152.39,102.44 -12.99,2.87 -35.47,3.39 -45.22,6.26l0 -0.01z"/>
    <path fill="#FF4A92" d="M354.68 1123.55c1.37,17.28 18.3,44.94 26.21,57.31 12.02,18.76 24.66,30.08 40.46,43.89 66.04,57.69 176.38,59.63 250.5,-0.5 25.35,-20.57 64.27,-72.6 64.76,-102.22 -85.4,-8.34 -138.94,-40.7 -187.92,-103.63 -2.68,1.63 -0.47,-0.01 -3.14,2.53l-6.46 8.25c-2.98,3.94 -5.57,6.21 -8.48,9.78 -39.78,48.69 -113.33,81.84 -175.93,84.59l0 0z"/>
   </g>
   <g>
    <path fill="#93F048" d="M528.05 345.94c-11.04,-15.39 -52.37,-54.87 -68.74,-73.73 -4,-4.61 -7.03,-8.29 -11.14,-12.72 -4.24,-4.59 -8.06,-6.78 -12.32,-11.45 -7.34,-8.04 -14.65,-18.27 -22.5,-25.17 -10.61,-9.32 -14.86,-14.93 -23.18,-24.49l-23.44 -24.17c-4.03,-4.54 -7.01,-8.52 -11.11,-12.76 -7.09,-7.31 -8.4,-4.02 -12.76,-14.33 6.74,4.44 8.58,5.94 14.18,11.09l128.98 109.29c14.76,11.18 56.44,50.16 66.34,55.21 5.54,-65.71 -8.44,-115.83 -45.02,-162.7 -6.77,-8.68 -12.88,-15.19 -19.3,-22.86 -7.12,-8.53 -13.11,-13.65 -21.5,-20.67 -74.67,-62.4 -162.37,-106.56 -265.14,-116.49 5.93,111.11 80.22,303.68 183.68,353.77 21.65,10.48 47.7,16.44 75.55,14.12 20.08,-1.68 54.36,-11.52 67.41,-21.95l0.01 -0z"/>
    <path fill="#93F048" d="M567.11 324.47c9.28,-5.56 11.68,-9.63 19.37,-15.86l20.04 -16.69c4.42,-4.02 4.69,-5.19 9.52,-8.78l19.74 -16.93c5.08,-4.98 4.74,-4.57 9.87,-8.47 4.31,-3.28 4.63,-4.45 8.48,-7.95l58.9 -51.11c3.64,-2.76 6.66,-4.16 9.13,-7.36 -12.38,11.33 -21.46,26.35 -33.19,36.49l-35.67 37.62c-11.07,13.15 -22.84,24.26 -34.1,37.41l-34.89 37.61c8.38,8.12 33.21,14.56 47.35,15.75 54.34,4.61 94.3,-31.44 122.01,-72.91 27.44,-41.07 67.12,-131.22 67.59,-193.52 -56.56,-0.76 -143.08,44.08 -175.09,69.55 -40.87,32.53 -87.9,81.74 -79.06,165.16l0.01 -0.01z"/>
   </g>
  </g>
  <path fill="black" fill-rule="nonzero" d="M1687.42 877.02c0,41.06 -14.43,75.96 -43.18,104.71 -28.75,28.75 -63.78,43.07 -104.71,43.07l-103.29 -0.24c-11.71,0 -22.01,-4.5 -30.88,-13.25 -8.87,-8.87 -13.25,-19.17 -13.25,-31l0 -372.82c0,-11.95 4.38,-22.24 13.13,-31 8.64,-8.76 19.05,-13.13 30.88,-13.13l103.29 0c35.14,0 64.96,12.43 89.68,37.15 24.73,24.73 37.04,54.66 37.04,89.92 0,28.99 -8.87,55.02 -26.5,77.85 31.83,29.46 47.8,65.67 47.8,108.73zm-109.33 -186.94c0,-10.65 -3.78,-19.76 -11.36,-27.33 -7.45,-7.57 -16.56,-11.36 -27.33,-11.36l-59.28 0 0 77.38 59.28 0c10.77,0 19.88,-3.79 27.33,-11.36 7.57,-7.57 11.36,-16.68 11.36,-27.33zm21.3 186.82c0,-16.68 -5.8,-30.88 -17.39,-42.59 -11.48,-11.71 -25.56,-17.51 -42.24,-17.51l-59.63 0 0 119.98 59.39 0c16.57,0 30.76,-5.8 42.36,-17.39 11.71,-11.59 17.51,-25.79 17.51,-42.48z"/>
  <path id="1" fill="black" fill-rule="nonzero" d="M2051.01 856.19c0,46.97 -16.33,86.85 -48.98,119.5 -32.65,32.78 -72.41,49.1 -119.26,49.1 -46.85,0 -86.61,-16.33 -119.26,-49.1 -32.66,-32.65 -48.98,-72.53 -48.98,-119.5 0,-46.97 16.33,-86.85 48.98,-119.5 32.65,-32.78 72.41,-49.1 119.26,-49.1 46.85,0 86.61,16.33 119.26,49.1 32.66,32.65 48.98,72.53 48.98,119.5zm-88.03 0c0,-22.36 -7.81,-41.41 -23.43,-57.15 -15.5,-15.62 -34.43,-23.43 -56.8,-23.43 -22.36,0 -41.29,7.81 -56.79,23.43 -15.62,15.74 -23.43,34.78 -23.43,57.15 0,22.36 7.81,41.41 23.43,57.15 15.5,15.62 34.43,23.43 56.79,23.43 22.36,0 41.3,-7.81 56.8,-23.43 15.61,-15.74 23.43,-34.79 23.43,-57.15z"/>
  <path id="2" fill="black" fill-rule="nonzero" d="M2414.96 856.19c0,46.97 -16.33,86.85 -48.98,119.5 -32.65,32.78 -72.41,49.1 -119.26,49.1 -46.85,0 -86.61,-16.33 -119.26,-49.1 -32.66,-32.65 -48.98,-72.53 -48.98,-119.5 0,-46.97 16.33,-86.85 48.98,-119.5 32.65,-32.78 72.41,-49.1 119.26,-49.1 46.85,0 86.61,16.33 119.26,49.1 32.66,32.65 48.98,72.53 48.98,119.5zm-88.03 0c0,-22.36 -7.81,-41.41 -23.43,-57.15 -15.5,-15.62 -34.43,-23.43 -56.8,-23.43 -22.36,0 -41.29,7.81 -56.79,23.43 -15.62,15.74 -23.43,34.78 -23.43,57.15 0,22.36 7.81,41.41 23.43,57.15 15.5,15.62 34.43,23.43 56.79,23.43 22.36,0 41.3,-7.81 56.8,-23.43 15.61,-15.74 23.43,-34.79 23.43,-57.15z"/>
  <path id="3" fill="black" fill-rule="nonzero" d="M2771.45 979.6c0,11.95 -4.61,22.48 -13.72,31.59 -8.99,9.11 -19.52,13.61 -31.47,13.61 -11.24,0 -26.62,-8.99 -46.03,-26.98 -13.25,-13.25 -26.5,-26.62 -39.76,-40.11l-49.1 -47.44c-21.89,-23.31 -32.78,-41.53 -32.78,-54.54 0,-13.13 10.89,-31.35 32.54,-54.67 6.04,-5.91 22.48,-21.65 49.22,-47.21 10.18,-9.94 28.52,-27.57 55.02,-53.12 9.82,-8.76 20,-13.13 30.88,-13.13 11.95,0 22.48,4.5 31.59,13.61 8.99,8.99 13.61,19.52 13.61,31.47 0,11.36 -4.61,21.53 -13.84,30.65l-92.88 92.64 92.88 92.76c9.23,9.23 13.84,19.52 13.84,30.88zm-213.33 0.95c0,12.89 -4.14,23.54 -12.43,31.83 -8.16,8.28 -18.69,12.42 -31.59,12.42 -12.78,0 -23.43,-4.14 -31.59,-12.42 -8.28,-8.28 -12.43,-18.93 -12.43,-31.83l0 -372.94c0,-12.9 4.14,-23.54 12.43,-31.83 8.17,-8.28 18.81,-12.43 31.59,-12.43 12.9,0 23.43,4.14 31.59,12.43 8.28,8.28 12.43,18.93 12.43,31.83l0 372.94z"/>
  <path id="4" fill="black" fill-rule="nonzero" d="M3149.6 856.19c0,46.85 -16.33,86.61 -49.1,119.38 -32.78,32.78 -72.41,49.22 -119.15,49.22 -46.73,0 -86.37,-16.33 -119.15,-49.1 -32.77,-32.65 -49.1,-72.41 -49.1,-119.15l0 -248.94c0,-12.9 4.14,-23.54 12.43,-31.83 8.17,-8.28 18.81,-12.43 31.59,-12.43 12.9,0 23.43,4.14 31.59,12.43 8.28,8.28 12.43,18.93 12.43,31.83l0 100.22c24.85,-13.49 51.59,-20.23 80.1,-20.23 46.74,0 86.49,16.44 119.27,49.22 32.77,32.77 49.1,72.53 49.1,119.38zm-88.03 0c0,-22.36 -7.81,-41.41 -23.43,-57.15 -15.5,-15.62 -34.43,-23.43 -56.8,-23.43 -22.36,0 -41.29,7.81 -56.79,23.43 -15.62,15.74 -23.43,34.78 -23.43,57.15 0,22.36 7.81,41.41 23.43,57.15 15.5,15.62 34.43,23.43 56.79,23.43 22.36,0 41.3,-7.81 56.8,-23.43 15.62,-15.74 23.43,-34.79 23.43,-57.15z"/>
  <path id="5" fill="black" fill-rule="nonzero" d="M3496.98 917.01c0,6.86 -2.25,14.67 -6.63,23.31 -13.13,25.67 -33.48,46.26 -61.29,61.76 -26.62,15.15 -54.78,22.72 -84.36,22.72 -46.62,0 -86.37,-16.44 -119.03,-49.22 -32.78,-32.77 -49.1,-72.53 -49.1,-119.38 0,-46.85 16.33,-86.61 49.1,-119.38 32.66,-32.78 72.41,-49.22 119.03,-49.22 22.83,0 45.67,5.2 68.74,15.62 22.95,10.41 42.12,24.13 57.62,41.17 16.8,18.57 25.32,36.09 25.32,52.42 0,15.14 -7.33,26.85 -22.13,35.37l-165.05 95.13c11.24,6.27 23.07,9.46 35.5,9.46 19.17,0 35.02,-5.44 47.68,-16.44 8.64,-9.94 17.28,-19.88 25.68,-29.7 11.59,-11.59 22.48,-17.39 32.77,-17.39 11.95,0 22.6,4.38 32.07,12.89 9.35,8.64 14.08,18.93 14.08,30.88zm-116.19 -132.52c-11.24,-5.92 -23.19,-8.87 -35.97,-8.87 -21.06,0 -39.4,7.22 -54.9,21.77 -15.38,14.55 -23.67,32.42 -24.73,53.72l115.59 -66.61z"/>
  <path id="6" fill="black" fill-rule="nonzero" d="M3757.4 764.02c0,11.95 -4.73,22.24 -14.08,30.76 -9.47,8.63 -20.23,12.89 -32.42,12.89 -11.12,0 -21.77,-5.32 -31.83,-16.09 -10.18,-10.65 -17.16,-15.97 -20.82,-15.97 -11.95,0 -17.98,6.04 -17.98,17.98l0 186.94c0,12.89 -4.14,23.54 -12.43,31.83 -8.16,8.28 -18.69,12.42 -31.59,12.42 -12.78,0 -23.43,-4.14 -31.59,-12.42 -8.28,-8.28 -12.43,-18.93 -12.43,-31.83l0 -248.7c0,-12.9 4.14,-23.55 12.43,-31.83 8.28,-8.28 18.81,-12.42 31.71,-12.42 9.46,0 17.75,2.37 24.85,7.1 12.07,-4.73 24.49,-7.1 37.39,-7.1 18.69,0 36.44,4.85 53.24,14.43 16.8,9.7 29.58,22.6 38.69,38.81 4.61,8.28 6.86,16.09 6.86,23.19z"/>
  <path id="7" fill="black" fill-rule="nonzero" d="M4017.34 764.02c0,11.95 -4.73,22.24 -14.08,30.76 -9.47,8.63 -20.23,12.89 -32.42,12.89 -11.12,0 -21.77,-5.32 -31.83,-16.09 -10.18,-10.65 -17.16,-15.97 -20.82,-15.97 -11.95,0 -17.98,6.04 -17.98,17.98l0 186.94c0,12.89 -4.14,23.54 -12.43,31.83 -8.16,8.28 -18.69,12.42 -31.59,12.42 -12.78,0 -23.43,-4.14 -31.59,-12.42 -8.28,-8.28 -12.43,-18.93 -12.43,-31.83l0 -248.7c0,-12.9 4.14,-23.55 12.43,-31.83 8.28,-8.28 18.81,-12.42 31.71,-12.42 9.46,0 17.75,2.37 24.85,7.1 12.07,-4.73 24.49,-7.1 37.39,-7.1 18.69,0 36.44,4.85 53.24,14.43 16.8,9.7 29.58,22.6 38.69,38.81 4.61,8.28 6.86,16.09 6.86,23.19z"/>
  <path id="8" fill="black" fill-rule="nonzero" d="M4312.07 1021.37c0,35.14 -12.31,65.07 -37.04,89.8 -24.73,24.73 -54.54,37.15 -89.68,37.15 -22.24,0 -43.18,-5.56 -63.06,-16.8 -20.59,-11.59 -35.97,-26.98 -46.26,-46.15 -4.61,-8.63 -6.86,-16.44 -6.86,-23.43 0,-11.83 4.85,-21.3 14.56,-28.52 8.87,-6.27 19.4,-9.35 31.71,-9.35 11.24,0 23.07,6.04 35.38,18.1 12.42,12.07 24.02,18.1 34.67,18.1 10.65,0 19.76,-4.26 27.21,-12.9 7.57,-8.63 11.36,-18.46 11.36,-29.34 -12.54,4.5 -25.32,6.74 -38.57,6.74 -35.14,0 -65.07,-12.3 -89.8,-37.03 -24.73,-24.73 -37.04,-54.67 -37.04,-89.8l0 -166.12c0,-12.9 4.14,-23.55 12.43,-31.83 8.17,-8.28 18.81,-12.42 31.59,-12.42 12.9,0 23.43,4.14 31.59,12.42 8.28,8.28 12.43,18.81 12.43,31.71l0 165.65c0,10.77 3.78,19.88 11.36,27.33 7.57,7.57 16.68,11.36 27.33,11.36 10.65,0 19.76,-3.79 27.33,-11.36 7.57,-7.46 11.36,-16.57 11.36,-27.33l0 -165.65c0,-12.89 4.14,-23.43 12.43,-31.71 8.16,-8.28 18.81,-12.42 31.59,-12.42 12.9,0 23.43,4.14 31.59,12.42 8.28,8.28 12.43,18.81 12.43,31.71l0 289.64z"/>
 </g>
</svg>
