<?xml version="1.0" encoding="UTF-8"?>
<!DOCTYPE svg PUBLIC "-//W3C//DTD SVG 1.1//EN" "http://www.w3.org/Graphics/SVG/1.1/DTD/svg11.dtd">
<!-- Creator: CorelDRAW 2018 (64 Bit Versão de avaliação) -->
<svg xmlns="http://www.w3.org/2000/svg" xml:space="preserve" width="2.31462in" height="2.31462in" version="1.1" shape-rendering="geometricPrecision" text-rendering="geometricPrecision" image-rendering="optimizeQuality" fill-rule="evenodd" clip-rule="evenodd"
viewBox="0 0 2314.61 2314.61"
 xmlns:xlink="http://www.w3.org/1999/xlink">
 <g id="Camada_x0020_1">
  <metadata id="CorelCorpID_0Corel-Layer"/>
  <g id="_2073190549712">
   <rect fill="none" x="-0" y="-0" width="2314.61" height="2314.61"/>
   <g>
    <g>
     <g>
      <path fill="#FF4A92" d="M1133.22 567.14c-100.07,13.65 -186.38,105.18 -171.05,222.62 14.41,110.35 117.09,184.2 224.1,170.58 100.7,-12.81 184.52,-105.13 170.15,-221.74 -12.61,-102.33 -105.76,-187.49 -223.2,-171.47z"/>
      <path fill="#FF4A92" d="M1366.08 509.25c3.69,2.89 45.02,22.81 60.42,32.83 50.57,32.89 88.54,65.97 126.41,111.81 7.06,8.55 13.39,17.66 20.41,27.24 53.77,73.54 90.85,178.63 90.83,291.82 0,276.94 -230.35,502.99 -507.27,502.69 -277.04,-0.3 -505.89,-224.33 -505.89,-508.19 0,-107.8 37.89,-207.37 86.04,-278.78 15.54,-23.05 24.59,-31.93 39.86,-51.73l45.56 -46.03c56.56,-47.17 52.65,-39.17 108.89,-74.33 -0.28,-0.33 -0.75,-1.24 -0.88,-0.95l-11.95 -11.77c-4.59,-4.49 -8.54,-8.43 -11.94,-13.51 -12.24,2.56 -50.8,28.66 -60.69,35.89 -10.28,7.52 -18.1,12.78 -27.39,20.31 -44.76,36.27 -83.81,78.06 -115.35,126.67 -237.23,365.63 26.06,838.82 453.75,839.28 299.23,0.32 544.33,-241.92 544.16,-541.38 -0.07,-127.03 -47.45,-251.4 -114.68,-334.16 -25.75,-31.7 -42.89,-50.54 -72.94,-77.35l-27.6 -21.95c-21.35,-15.94 -71.72,-50.85 -94.34,-57.46 -5.43,5.46 -8.17,9.35 -13.02,14.24 -4.98,5.02 -9.12,9.45 -12.38,14.8z"/>
      <path fill="#FF4A92" d="M1153.25 1016.94c-14.61,-4.88 -37.44,0.19 -84.62,-18.08 -24.14,-9.34 -65.28,-33.96 -78.55,-49.74 -4.97,-5.91 -6.82,-7.87 -12.78,-12.82 -13.21,-10.99 -33.88,-43.89 -42.11,-60.53 -5.74,-11.61 -9.38,-24.54 -15.09,-36.08 -168.18,26.83 -218.27,248.78 -88.63,348.76 74.56,57.51 171.35,59.89 244.57,4.24 8.75,-6.65 12.02,-9.27 19.16,-17.48 6.57,-7.56 3.9,-1.93 17.6,-19.08 5.25,-6.58 10.1,-13.49 14.94,-21.73 13.74,-23.41 35.83,-84.21 25.52,-117.44z"/>
      <path fill="#FF4A92" d="M1169.46 1015.1c-5.89,40.68 8.53,89.26 26.56,118.41 5.29,8.55 9.13,14.31 14.89,21.78 10.07,13.04 23.99,26.83 36.94,36.45 78.81,58.56 175.5,47.64 243.89,-4.87 25.59,-19.65 48.61,-52.68 60.56,-84.33 35.73,-94.68 -9.2,-203.48 -95.77,-246.04 -16.08,-7.91 -35.89,-16.69 -55.88,-18.08 -9.24,15.48 -9.39,32.67 -33.56,67.99 -35.55,51.96 -89.17,88.47 -152.39,102.44 -12.98,2.87 -35.47,3.4 -45.22,6.26z"/>
      <path fill="#FF4A92" d="M968.35 1285.03c1.37,17.28 18.3,44.94 26.21,57.31 12.02,18.76 24.66,30.08 40.47,43.89 66.04,57.69 176.38,59.63 250.51,-0.5 25.36,-20.57 64.27,-72.6 64.76,-102.22 -85.4,-8.33 -138.94,-40.7 -187.92,-103.63 -2.68,1.64 -0.47,-0.01 -3.14,2.53l-6.46 8.25c-2.98,3.94 -5.57,6.21 -8.49,9.78 -39.78,48.69 -113.33,81.84 -175.93,84.59z"/>
     </g>
     <g>
      <path fill="#93F048" d="M1141.72 507.41c-11.04,-15.39 -52.36,-54.87 -68.73,-73.73 -4,-4.61 -7.03,-8.29 -11.14,-12.72 -4.24,-4.58 -8.06,-6.78 -12.32,-11.45 -7.34,-8.03 -14.65,-18.28 -22.5,-25.17 -10.61,-9.32 -14.86,-14.93 -23.18,-24.5l-23.44 -24.17c-4.03,-4.54 -7.01,-8.52 -11.11,-12.76 -7.09,-7.31 -8.4,-4.02 -12.76,-14.32 6.74,4.44 8.58,5.95 14.19,11.1l128.98 109.3c14.77,11.18 56.44,50.16 66.34,55.21 5.54,-65.71 -8.44,-115.83 -45.02,-162.71 -6.77,-8.68 -12.88,-15.19 -19.3,-22.87 -7.13,-8.53 -13.11,-13.65 -21.5,-20.67 -74.67,-62.4 -162.37,-106.56 -265.14,-116.49 5.93,111.11 80.22,303.68 183.68,353.77 21.65,10.48 47.7,16.44 75.55,14.12 20.08,-1.68 54.35,-11.52 67.41,-21.95z"/>
      <path fill="#93F048" d="M1180.78 485.94c9.28,-5.56 11.68,-9.63 19.37,-15.86l20.03 -16.69c4.42,-4.02 4.69,-5.19 9.51,-8.78l19.74 -16.92c5.08,-4.98 4.74,-4.57 9.87,-8.48 4.3,-3.28 4.63,-4.46 8.49,-7.95l58.9 -51.11c3.64,-2.76 6.66,-4.16 9.13,-7.36 -12.38,11.33 -21.45,26.35 -33.19,36.49l-35.67 37.62c-11.07,13.15 -22.84,24.26 -34.1,37.41l-34.89 37.61c8.38,8.11 33.21,14.56 47.35,15.75 54.34,4.61 94.3,-31.44 122.01,-72.92 27.44,-41.07 67.12,-131.22 67.59,-193.52 -56.56,-0.76 -143.08,44.08 -175.09,69.55 -40.87,32.53 -87.9,81.74 -79.06,165.16z"/>
     </g>
    </g>
    <path fill="black" fill-rule="nonzero" d="M254 1942.72c0,31.84 -11.2,58.91 -33.5,81.21 -22.3,22.3 -49.46,33.41 -81.21,33.41l-80.11 -0.19c-9.09,0 -17.07,-3.49 -23.95,-10.28 -6.88,-6.89 -10.28,-14.87 -10.28,-24.04l0 -289.16c0,-9.27 3.39,-17.25 10.19,-24.04 6.7,-6.79 14.78,-10.19 23.95,-10.19l80.11 0c27.26,0 50.38,9.63 69.56,28.81 19.18,19.18 28.72,42.4 28.72,69.74 0,22.48 -6.88,42.67 -20.56,60.38 24.68,22.85 37.07,50.93 37.07,84.33zm-84.8 -144.99c0,-8.26 -2.94,-15.33 -8.81,-21.2 -5.78,-5.87 -12.85,-8.81 -21.2,-8.81l-45.98 0 0 60.02 45.98 0c8.35,0 15.42,-2.94 21.2,-8.81 5.87,-5.87 8.81,-12.94 8.81,-21.2zm16.52 144.9c0,-12.94 -4.5,-23.95 -13.49,-33.04 -8.9,-9.08 -19.82,-13.58 -32.76,-13.58l-46.25 0 0 93.05 46.07 0c12.85,0 23.86,-4.5 32.85,-13.49 9.09,-9 13.58,-20.01 13.58,-32.94z"/>
    <path id="1" fill="black" fill-rule="nonzero" d="M536 1926.57c0,36.43 -12.67,67.35 -37.99,92.68 -25.33,25.42 -56.16,38.08 -92.5,38.08 -36.34,0 -67.18,-12.67 -92.5,-38.08 -25.33,-25.33 -37.99,-56.26 -37.99,-92.68 0,-36.43 12.67,-67.36 37.99,-92.69 25.33,-25.42 56.16,-38.08 92.5,-38.08 36.34,0 67.17,12.67 92.5,38.08 25.33,25.33 37.99,56.26 37.99,92.69zm-68.28 0c0,-17.35 -6.06,-32.12 -18.17,-44.33 -12.02,-12.11 -26.7,-18.17 -44.05,-18.17 -17.35,0 -32.03,6.06 -44.05,18.17 -12.11,12.2 -18.17,26.98 -18.17,44.33 0,17.34 6.06,32.12 18.17,44.32 12.02,12.11 26.7,18.17 44.05,18.17 17.34,0 32.02,-6.06 44.05,-18.17 12.11,-12.2 18.17,-26.98 18.17,-44.32z"/>
    <path id="2" fill="black" fill-rule="nonzero" d="M818.28 1926.57c0,36.43 -12.67,67.35 -37.99,92.68 -25.33,25.42 -56.16,38.08 -92.5,38.08 -36.34,0 -67.18,-12.67 -92.5,-38.08 -25.33,-25.33 -37.99,-56.26 -37.99,-92.68 0,-36.43 12.67,-67.36 37.99,-92.69 25.33,-25.42 56.16,-38.08 92.5,-38.08 36.34,0 67.17,12.67 92.5,38.08 25.33,25.33 37.99,56.26 37.99,92.69zm-68.28 0c0,-17.35 -6.06,-32.12 -18.17,-44.33 -12.02,-12.11 -26.7,-18.17 -44.05,-18.17 -17.35,0 -32.03,6.06 -44.05,18.17 -12.11,12.2 -18.17,26.98 -18.17,44.33 0,17.34 6.06,32.12 18.17,44.32 12.02,12.11 26.7,18.17 44.05,18.17 17.34,0 32.02,-6.06 44.05,-18.17 12.11,-12.2 18.17,-26.98 18.17,-44.32z"/>
    <path id="3" fill="black" fill-rule="nonzero" d="M1094.77 2022.28c0,9.27 -3.58,17.44 -10.65,24.5 -6.98,7.07 -15.14,10.56 -24.41,10.56 -8.72,0 -20.65,-6.98 -35.7,-20.93 -10.28,-10.28 -20.56,-20.65 -30.83,-31.11l-38.08 -36.8c-16.98,-18.08 -25.42,-32.21 -25.42,-42.31 0,-10.19 8.44,-24.32 25.24,-42.39 4.68,-4.59 17.43,-16.8 38.17,-36.62 7.89,-7.71 22.12,-21.38 42.67,-41.2 7.62,-6.79 15.51,-10.19 23.95,-10.19 9.27,0 17.43,3.49 24.5,10.56 6.98,6.97 10.56,15.14 10.56,24.41 0,8.81 -3.58,16.7 -10.74,23.77l-72.04 71.85 72.04 71.94c7.16,7.16 10.74,15.14 10.74,23.95zm-165.46 0.73c0,10 -3.21,18.26 -9.63,24.68 -6.33,6.43 -14.5,9.64 -24.5,9.64 -9.91,0 -18.17,-3.21 -24.5,-9.64 -6.43,-6.42 -9.63,-14.68 -9.63,-24.68l0 -289.25c0,-10 3.21,-18.26 9.63,-24.68 6.33,-6.42 14.59,-9.63 24.5,-9.63 10,0 18.17,3.21 24.5,9.63 6.43,6.43 9.63,14.69 9.63,24.68l0 289.25z"/>
    <path id="4" fill="black" fill-rule="nonzero" d="M1388.06 1926.57c0,36.34 -12.67,67.17 -38.08,92.59 -25.42,25.42 -56.16,38.18 -92.41,38.18 -36.25,0 -66.99,-12.67 -92.41,-38.08 -25.42,-25.33 -38.09,-56.16 -38.09,-92.41l0 -193.08c0,-10 3.21,-18.26 9.64,-24.68 6.33,-6.42 14.59,-9.63 24.5,-9.63 10,0 18.17,3.21 24.5,9.63 6.42,6.43 9.63,14.69 9.63,24.68l0 77.73c19.27,-10.46 40.01,-15.69 62.13,-15.69 36.25,0 67.08,12.76 92.5,38.18 25.42,25.42 38.08,56.25 38.08,92.59zm-68.28 0c0,-17.35 -6.06,-32.12 -18.17,-44.33 -12.02,-12.11 -26.7,-18.17 -44.05,-18.17 -17.35,0 -32.03,6.06 -44.05,18.17 -12.11,12.2 -18.17,26.98 -18.17,44.33 0,17.34 6.06,32.12 18.17,44.32 12.02,12.11 26.7,18.17 44.05,18.17 17.34,0 32.03,-6.06 44.05,-18.17 12.11,-12.2 18.17,-26.98 18.17,-44.32z"/>
    <path id="5" fill="black" fill-rule="nonzero" d="M1657.49 1973.74c0,5.32 -1.74,11.38 -5.14,18.08 -10.19,19.91 -25.97,35.88 -47.54,47.91 -20.65,11.74 -42.49,17.62 -65.43,17.62 -36.15,0 -66.99,-12.76 -92.32,-38.18 -25.42,-25.42 -38.08,-56.25 -38.08,-92.59 0,-36.34 12.67,-67.18 38.08,-92.59 25.33,-25.42 56.17,-38.18 92.32,-38.18 17.71,0 35.43,4.04 53.32,12.11 17.8,8.07 32.67,18.72 44.69,31.94 13.03,14.41 19.64,27.99 19.64,40.65 0,11.75 -5.69,20.83 -17.16,27.44l-128.02 73.78c8.72,4.87 17.89,7.34 27.53,7.34 14.87,0 27.17,-4.22 36.98,-12.76 6.7,-7.71 13.4,-15.42 19.91,-23.04 8.99,-8.99 17.44,-13.49 25.42,-13.49 9.27,0 17.53,3.39 24.87,10 7.25,6.7 10.92,14.68 10.92,23.95zm-90.11 -102.78c-8.72,-4.59 -17.99,-6.88 -27.9,-6.88 -16.33,0 -30.56,5.6 -42.58,16.89 -11.93,11.29 -18.35,25.15 -19.18,41.66l89.66 -51.67z"/>
    <path id="6" fill="black" fill-rule="nonzero" d="M1859.47 1855.08c0,9.27 -3.67,17.25 -10.92,23.86 -7.34,6.7 -15.69,10 -25.15,10 -8.63,0 -16.89,-4.13 -24.68,-12.48 -7.89,-8.26 -13.31,-12.39 -16.15,-12.39 -9.27,0 -13.95,4.68 -13.95,13.95l0 144.99c0,10 -3.21,18.26 -9.63,24.68 -6.33,6.43 -14.5,9.64 -24.5,9.64 -9.91,0 -18.17,-3.21 -24.5,-9.64 -6.43,-6.42 -9.63,-14.68 -9.63,-24.68l0 -192.89c0,-10 3.21,-18.26 9.63,-24.68 6.43,-6.43 14.59,-9.64 24.59,-9.64 7.34,0 13.76,1.83 19.27,5.51 9.36,-3.67 19,-5.51 29,-5.51 14.5,0 28.26,3.76 41.3,11.2 13.03,7.52 22.94,17.53 30.01,30.1 3.58,6.43 5.32,12.48 5.32,17.99z"/>
    <path id="7" fill="black" fill-rule="nonzero" d="M2061.08 1855.08c0,9.27 -3.67,17.25 -10.92,23.86 -7.34,6.7 -15.69,10 -25.15,10 -8.63,0 -16.89,-4.13 -24.68,-12.48 -7.89,-8.26 -13.31,-12.39 -16.15,-12.39 -9.27,0 -13.95,4.68 -13.95,13.95l0 144.99c0,10 -3.21,18.26 -9.63,24.68 -6.33,6.43 -14.5,9.64 -24.5,9.64 -9.91,0 -18.17,-3.21 -24.5,-9.64 -6.43,-6.42 -9.63,-14.68 -9.63,-24.68l0 -192.89c0,-10 3.21,-18.26 9.63,-24.68 6.43,-6.43 14.59,-9.64 24.59,-9.64 7.34,0 13.76,1.83 19.27,5.51 9.36,-3.67 19,-5.51 29,-5.51 14.5,0 28.26,3.76 41.3,11.2 13.03,7.52 22.94,17.53 30.01,30.1 3.58,6.43 5.32,12.48 5.32,17.99z"/>
    <path id="8" fill="black" fill-rule="nonzero" d="M2289.68 2054.68c0,27.26 -9.54,50.47 -28.72,69.65 -19.18,19.18 -42.3,28.81 -69.56,28.81 -17.25,0 -33.5,-4.31 -48.91,-13.03 -15.97,-9 -27.9,-20.93 -35.88,-35.79 -3.58,-6.7 -5.32,-12.76 -5.32,-18.17 0,-9.18 3.76,-16.52 11.29,-22.12 6.88,-4.86 15.05,-7.25 24.59,-7.25 8.72,0 17.89,4.68 27.44,14.04 9.63,9.36 18.63,14.04 26.89,14.04 8.26,0 15.32,-3.31 21.11,-10 5.87,-6.7 8.81,-14.31 8.81,-22.76 -9.72,3.49 -19.64,5.23 -29.91,5.23 -27.26,0 -50.47,-9.54 -69.65,-28.72 -19.18,-19.18 -28.72,-42.4 -28.72,-69.65l0 -128.84c0,-10 3.21,-18.26 9.64,-24.68 6.33,-6.43 14.59,-9.64 24.5,-9.64 10,0 18.17,3.21 24.5,9.64 6.42,6.42 9.63,14.59 9.63,24.59l0 128.48c0,8.35 2.94,15.42 8.81,21.2 5.87,5.87 12.94,8.81 21.2,8.81 8.26,0 15.33,-2.94 21.2,-8.81 5.87,-5.78 8.81,-12.85 8.81,-21.2l0 -128.48c0,-10 3.21,-18.17 9.64,-24.59 6.33,-6.43 14.59,-9.64 24.5,-9.64 10,0 18.17,3.21 24.5,9.64 6.42,6.42 9.63,14.59 9.63,24.59l0 224.65z"/>
   </g>
  </g>
 </g>
</svg>
