<?xml version="1.0" encoding="UTF-8"?>
<!DOCTYPE svg PUBLIC "-//W3C//DTD SVG 1.1//EN" "http://www.w3.org/Graphics/SVG/1.1/DTD/svg11.dtd">
<!-- Creator: CorelDRAW 2018 (64 Bit Versão de avaliação) -->
<svg xmlns="http://www.w3.org/2000/svg" xml:space="preserve" width="1.04865in" height="1.04865in" version="1.1" shape-rendering="geometricPrecision" text-rendering="geometricPrecision" image-rendering="optimizeQuality" fill-rule="evenodd" clip-rule="evenodd"
viewBox="0 0 301.86 301.86"
 xmlns:xlink="http://www.w3.org/1999/xlink">
 <g id="Camada_x0020_1">
  <metadata id="CorelCorpID_0Corel-Layer"/>
  <rect fill="none" width="301.86" height="301.86"/>
  <g id="_2073190576144">
   <g>
    <path fill="#FF4A92" d="M145.54 90.64c-22.36,3.05 -41.64,23.5 -38.22,49.74 3.22,24.66 26.16,41.16 50.07,38.11 22.5,-2.86 41.23,-23.49 38.02,-49.54 -2.82,-22.86 -23.63,-41.89 -49.87,-38.31z"/>
    <path fill="#FF4A92" d="M197.56 77.7c0.82,0.64 10.06,5.1 13.5,7.33 11.3,7.35 19.78,14.74 28.24,24.98 1.58,1.91 2.99,3.95 4.56,6.09 12.01,16.43 20.3,39.91 20.3,65.2 0,61.88 -51.47,112.38 -113.34,112.32 -61.9,-0.07 -113.03,-50.12 -113.03,-113.55 0,-24.08 8.47,-46.33 19.22,-62.29 3.47,-5.15 5.5,-7.13 8.91,-11.56l10.18 -10.28c12.64,-10.54 11.76,-8.75 24.33,-16.61 -0.06,-0.07 -0.17,-0.28 -0.2,-0.21l-2.67 -2.63c-1.03,-1 -1.91,-1.88 -2.67,-3.02 -2.74,0.57 -11.35,6.4 -13.56,8.02 -2.3,1.68 -4.04,2.85 -6.12,4.54 -10,8.1 -18.73,17.44 -25.77,28.3 -53,81.69 5.82,187.42 101.38,187.52 66.86,0.07 121.62,-54.05 121.58,-120.96 -0.01,-28.38 -10.6,-56.17 -25.62,-74.66 -5.75,-7.08 -9.58,-11.29 -16.3,-17.28l-6.17 -4.9c-4.77,-3.56 -16.02,-11.36 -21.08,-12.84 -1.21,1.22 -1.82,2.09 -2.91,3.18 -1.11,1.12 -2.04,2.11 -2.77,3.31z"/>
    <path fill="#FF4A92" d="M150.01 191.14c-3.27,-1.09 -8.37,0.04 -18.91,-4.04 -5.39,-2.09 -14.59,-7.59 -17.55,-11.12 -1.11,-1.32 -1.52,-1.76 -2.85,-2.86 -2.95,-2.46 -7.57,-9.81 -9.41,-13.52 -1.28,-2.59 -2.1,-5.48 -3.37,-8.06 -37.58,6 -48.77,55.58 -19.8,77.92 16.66,12.85 38.28,13.38 54.64,0.95 1.95,-1.49 2.68,-2.07 4.28,-3.91 1.47,-1.69 0.87,-0.43 3.93,-4.26 1.17,-1.47 2.26,-3.01 3.34,-4.86 3.07,-5.23 8.01,-18.81 5.7,-26.24z"/>
    <path fill="#FF4A92" d="M153.63 190.73c-1.31,9.09 1.91,19.94 5.93,26.46 1.18,1.91 2.04,3.2 3.33,4.87 2.25,2.91 5.36,5.99 8.25,8.14 17.61,13.08 39.21,10.64 54.49,-1.09 5.72,-4.39 10.86,-11.77 13.53,-18.84 7.98,-21.15 -2.06,-45.46 -21.4,-54.97 -3.59,-1.77 -8.02,-3.73 -12.49,-4.04 -2.07,3.46 -2.1,7.3 -7.5,15.19 -7.94,11.61 -19.92,19.77 -34.05,22.89 -2.9,0.64 -7.93,0.76 -10.11,1.4z"/>
    <path fill="#FF4A92" d="M108.7 251.04c0.31,3.86 4.09,10.04 5.86,12.8 2.69,4.19 5.51,6.72 9.04,9.81 14.75,12.89 39.41,13.32 55.97,-0.11 5.67,-4.6 14.36,-16.22 14.47,-22.84 -19.08,-1.86 -31.04,-9.09 -41.99,-23.15 -0.6,0.37 -0.11,-0 -0.7,0.57l-1.44 1.84c-0.67,0.88 -1.24,1.39 -1.9,2.19 -8.89,10.88 -25.32,18.28 -39.31,18.9z"/>
   </g>
   <g>
    <path fill="#93F048" d="M147.44 77.29c-2.47,-3.44 -11.7,-12.26 -15.36,-16.47 -0.89,-1.03 -1.57,-1.85 -2.49,-2.84 -0.95,-1.02 -1.8,-1.52 -2.75,-2.56 -1.64,-1.79 -3.27,-4.08 -5.03,-5.62 -2.37,-2.08 -3.32,-3.34 -5.18,-5.47l-5.24 -5.4c-0.9,-1.01 -1.57,-1.9 -2.48,-2.85 -1.58,-1.63 -1.88,-0.9 -2.85,-3.2 1.51,0.99 1.92,1.33 3.17,2.48l28.82 24.42c3.3,2.5 12.61,11.21 14.82,12.34 1.24,-14.68 -1.88,-25.88 -10.06,-36.36 -1.51,-1.94 -2.88,-3.39 -4.31,-5.11 -1.59,-1.91 -2.93,-3.05 -4.8,-4.62 -16.68,-13.94 -36.28,-23.81 -59.24,-26.03 1.32,24.82 17.92,67.85 41.04,79.04 4.84,2.34 10.66,3.67 16.88,3.16 4.49,-0.37 12.14,-2.57 15.06,-4.9z"/>
    <path fill="#93F048" d="M156.16 72.5c2.07,-1.24 2.61,-2.15 4.33,-3.54l4.48 -3.73c0.99,-0.9 1.05,-1.16 2.12,-1.96l4.41 -3.78c1.14,-1.11 1.06,-1.02 2.2,-1.89 0.96,-0.73 1.03,-1 1.9,-1.78l13.16 -11.42c0.81,-0.62 1.49,-0.93 2.04,-1.65 -2.77,2.53 -4.79,5.89 -7.42,8.15l-7.97 8.41c-2.47,2.94 -5.1,5.42 -7.62,8.36l-7.8 8.4c1.87,1.81 7.42,3.25 10.58,3.52 12.14,1.03 21.07,-7.03 27.26,-16.29 6.13,-9.18 15,-29.32 15.1,-43.24 -12.64,-0.17 -31.97,9.85 -39.12,15.54 -9.13,7.27 -19.64,18.26 -17.67,36.9z"/>
   </g>
  </g>
 </g>
</svg>
